<svg xmlns="http://www.w3.org/2000/svg" viewBox="0 0 500 500"><g id="freepik--background-complete--inject-6"><rect x="331.23" y="405.82" width="116.85" height="15.61" transform="translate(-38.8 40.34) rotate(-5.65)" style="fill:#ebebeb"></rect><path d="M435.11,396.23l2.53,25.55a6,6,0,0,1-5.42,6.6l-81.43,8.05a6,6,0,0,1-4.59-1.51,6,6,0,0,1-2-3.9l-2.53-25.55a6.06,6.06,0,0,1,5.42-6.61l81.43-8a6.08,6.08,0,0,1,4.89,1.76,7.56,7.56,0,0,1,1,1.36A5.66,5.66,0,0,1,435.11,396.23Z" style="fill:#dbdbdb"></path><g style="opacity:0.1"><path d="M355.87,398a143.34,143.34,0,0,1-12.78,21.94l-.3-3.12a152.89,152.89,0,0,0,11.41-18.66Z"></path><path d="M376,396a135.83,135.83,0,0,1-28.2,39.93,5.9,5.9,0,0,1-1.57-1,168.32,168.32,0,0,0,28.1-38.75Z"></path><path d="M396.06,394A136.37,136.37,0,0,1,367,434.83l-2.73.27a169.25,169.25,0,0,0,30.13-40.91Z"></path><path d="M416.15,392a137.21,137.21,0,0,1-29,40.8l-2.79.27a170.62,170.62,0,0,0,30.19-40.91Z"></path><path d="M434.38,393.94a135.64,135.64,0,0,1-27.15,36.91l-2.78.28a172.78,172.78,0,0,0,28.95-38.55A7.56,7.56,0,0,1,434.38,393.94Z"></path><path d="M437,415.16l.3,3.06a129.84,129.84,0,0,1-10,10.65l-2.78.27A173.87,173.87,0,0,0,437,415.16Z"></path></g><path d="M51.76,230c1.87,2.55,7.94-1.11,40.05-26.7,15.24-12.14,38.35-28.57,70.52-54.33-34.24,22.92-56.88,40-73.05,50.88C55.21,222.78,49.9,227.48,51.76,230Zm34.73-25.54C77.88,211.9,57,228.11,56,226.8S76.83,210.46,86.49,204.48Z" style="fill:#a6a6a6"></path><path d="M212.87,424.34a22,22,0,1,0-13.43,28.06A22,22,0,0,0,212.87,424.34Zm-27,15.51a3,3,0,1,1,3.11-3A3,3,0,0,1,185.9,439.85Zm.27-10.62a3,3,0,1,1,3.1-3A3,3,0,0,1,186.17,429.23Zm11.75,10.92a3,3,0,1,1,3.12-3A3,3,0,0,1,197.92,440.15Zm.26-10.62a3,3,0,1,1,3.13-3A3,3,0,0,1,198.18,429.53Z" style="fill:#ebebeb"></path><path d="M177.36,437.22a15.39,15.39,0,0,0,27,3.91,15.11,15.11,0,0,1-6,3.92,15.4,15.4,0,0,1-17.47-23.69A15.39,15.39,0,0,0,177.36,437.22Z" style="fill:#dbdbdb"></path><path d="M249.57,95a22,22,0,1,0-13.43,28.07A22,22,0,0,0,249.57,95Zm-27,15.52a3,3,0,1,1,3.11-3A3,3,0,0,1,222.61,110.53Zm.26-10.63a3,3,0,1,1,3.11-3A3,3,0,0,1,222.87,99.9Zm11.75,10.92a3,3,0,1,1,3.13-2.95A3,3,0,0,1,234.62,110.82Zm.27-10.62a3,3,0,1,1,3.12-3A3,3,0,0,1,234.89,100.2Z" style="fill:#ebebeb"></path><path d="M214.06,107.89a15.41,15.41,0,0,0,19.65,9.42,15.24,15.24,0,0,0,7.35-5.5,15.14,15.14,0,0,1-6,3.92A15.4,15.4,0,0,1,217.56,92,15.38,15.38,0,0,0,214.06,107.89Z" style="fill:#dbdbdb"></path><path d="M153.57,416.56c-.67,3.08,6.09,5.2,46.53,12.3,19.19,3.37,46.81,9.8,87.41,16.83-39.85-10.47-67.65-16.1-86.5-21C161.27,414.35,154.24,413.48,153.57,416.56Zm42.14,9.09c-11.27-1.53-37.25-6.44-36.9-8S184.82,422.38,195.71,425.65Z" style="fill:#a6a6a6"></path></g><g id="freepik--button-2--inject-6"><path d="M382.23,358.57a22,22,0,1,0-29.74,9.15A22,22,0,0,0,382.23,358.57Zm-29.68-9.31a3,3,0,1,1,4.28.28A3,3,0,0,1,352.55,349.26Zm8-7a3,3,0,1,1,4.28.28A3,3,0,0,1,360.54,342.25Zm-.06,16a3,3,0,1,1,4.29.29A3,3,0,0,1,360.48,358.29Zm8-7a3,3,0,0,1,4.57-4,3,3,0,1,1-4.57,4Z" style="fill:#263238"></path><path d="M348.69,341.19a15.42,15.42,0,0,0,6.4,20.83,15.2,15.2,0,0,0,9,1.67,15.14,15.14,0,0,1-7-1.77,15.39,15.39,0,0,1,5.57-28.9A15.37,15.37,0,0,0,348.69,341.19Z" style="opacity:0.1"></path></g><g id="freepik--button-1--inject-6"><path d="M158,209.13a22,22,0,1,0-13.43,28.07A22,22,0,0,0,158,209.13Zm-27,15.51a3,3,0,1,1,3.11-2.95A3,3,0,0,1,131,224.64Zm.26-10.62a3,3,0,1,1,3.11-3A3,3,0,0,1,131.25,214ZM143,224.94a3,3,0,1,1,3.13-2.95A3,3,0,0,1,143,224.94Zm.27-10.62a3,3,0,1,1,3.12-3A3,3,0,0,1,143.27,214.32Z" style="fill:#455a64"></path><path d="M122.44,222a15.41,15.41,0,0,0,19.65,9.42,15.24,15.24,0,0,0,7.35-5.5,15.07,15.07,0,0,1-6,3.92,15.4,15.4,0,0,1-17.47-23.69A15.38,15.38,0,0,0,122.44,222Z" style="opacity:0.1"></path></g><g id="freepik--thread-2--inject-6"><rect x="338.07" y="309.02" width="116.85" height="15.61" transform="translate(155.56 -129.87) rotate(23.03)" style="fill:#ebebeb"></rect><path d="M444.71,323.38l-10,23.62a6.05,6.05,0,0,1-7.92,3.2l-75.3-32A5.85,5.85,0,0,1,349,316.3a5.62,5.62,0,0,1-.88-1.65,6,6,0,0,1,.1-4.39l10.05-23.62a6,6,0,0,1,7.92-3.2l75.3,32a6.16,6.16,0,0,1,3.45,3.9,7.86,7.86,0,0,1,.2,1.67A5.61,5.61,0,0,1,444.71,323.38Z" style="fill:#37474f"></path><g style="opacity:0.1"><path d="M374.35,286.9A144,144,0,0,1,352.61,300l1.22-2.88a153.63,153.63,0,0,0,19-10.9Z"></path><path d="M392.93,294.8A136,136,0,0,1,349,316.3a5.62,5.62,0,0,1-.88-1.65,168.35,168.35,0,0,0,43.24-20.51Z"></path><path d="M411.51,302.7a136.42,136.42,0,0,1-45.08,21.85l-2.53-1.07c16.34-5,32-11.87,46.07-21.44Z"></path><path d="M430.09,310.6a137.09,137.09,0,0,1-45,21.87l-2.57-1.09A170.83,170.83,0,0,0,428.6,310Z"></path><path d="M445.17,321a135.86,135.86,0,0,1-41.53,19.35l-2.57-1.09A172.66,172.66,0,0,0,445,319.35,7.86,7.86,0,0,1,445.17,321Z"></path><path d="M437.27,340.88l-1.2,2.83a128.94,128.94,0,0,1-13.85,4.56l-2.57-1.09A175,175,0,0,0,437.27,340.88Z"></path></g></g><g id="freepik--threads-1--inject-6"><rect x="67.27" y="81.21" width="116.85" height="15.61" transform="translate(44.85 -42.08) rotate(23.03)" style="fill:#ebebeb"></rect><path d="M173.92,95.57l-10,23.62a6.05,6.05,0,0,1-7.92,3.2l-75.3-32a5.85,5.85,0,0,1-2.42-1.88,5.62,5.62,0,0,1-.88-1.65,6,6,0,0,1,.1-4.39L87.51,58.83a6,6,0,0,1,7.92-3.2l75.3,32a6.12,6.12,0,0,1,3.45,3.89,7.94,7.94,0,0,1,.2,1.67A5.58,5.58,0,0,1,173.92,95.57Z" style="fill:#455a64"></path><g style="opacity:0.1"><path d="M103.56,59.09A144.53,144.53,0,0,1,81.82,72.21L83,69.33a155.11,155.11,0,0,0,19-10.9Z"></path><path d="M122.14,67a136,136,0,0,1-43.9,21.5,5.62,5.62,0,0,1-.88-1.65A168.35,168.35,0,0,0,120.6,66.33Z"></path><path d="M140.72,74.89A136.47,136.47,0,0,1,95.63,96.74l-2.52-1.07c16.34-5,32-11.87,46.07-21.44Z"></path><path d="M159.3,82.79a137.19,137.19,0,0,1-45,21.87l-2.58-1.09a170.75,170.75,0,0,0,46.12-21.42Z"></path><path d="M174.38,93.21a135.86,135.86,0,0,1-41.53,19.35l-2.58-1.09a172.57,172.57,0,0,0,43.91-19.93A7.94,7.94,0,0,1,174.38,93.21Z"></path><path d="M166.48,113.07l-1.2,2.83a129.68,129.68,0,0,1-13.85,4.56l-2.58-1.09A175.21,175.21,0,0,0,166.48,113.07Z"></path></g><rect x="43.74" y="140.28" width="116.85" height="15.61" transform="translate(-55.04 60.59) rotate(-26.3)" style="fill:#ebebeb"></rect><path d="M138.56,115.78l11.38,23a6.05,6.05,0,0,1-2.74,8.09L73.85,183.13a6,6,0,0,1-3,.62,6.54,6.54,0,0,1-1.82-.41,6,6,0,0,1-3.27-2.94l-11.37-23a6,6,0,0,1,2.74-8.09L130.47,113a6.17,6.17,0,0,1,5.21-.08,7.71,7.71,0,0,1,1.39.94A5.53,5.53,0,0,1,138.56,115.78Z" style="fill:#263238"></path><g style="opacity:0.1"><path d="M65,145.38a143,143,0,0,1-4.22,25l-1.38-2.81a154.24,154.24,0,0,0,4.1-21.49Z"></path><path d="M83.14,136.43a136,136,0,0,1-12.3,47.32,6.54,6.54,0,0,1-1.82-.41,168.75,168.75,0,0,0,12.62-46.17Z"></path><path d="M101.24,127.49a136.25,136.25,0,0,1-12.8,48.43L86,177.14c6.88-15.63,11.83-32,13.76-48.91Z"></path><path d="M119.34,118.54A137,137,0,0,1,106.59,167l-2.51,1.24a170.66,170.66,0,0,0,13.81-48.93Z"></path><path d="M137.07,113.9A135.78,135.78,0,0,1,124.69,158l-2.51,1.24A172.4,172.4,0,0,0,135.68,113,7.71,7.71,0,0,1,137.07,113.9Z"></path><path d="M147,132.82l1.36,2.76a128.23,128.23,0,0,1-5.56,13.48l-2.51,1.24A174,174,0,0,0,147,132.82Z"></path></g></g><g id="freepik--Character--inject-6"><path d="M157.11,434.44c-.44.53-19,19.41-48.42,48.11-5.61,5.47-11.62,11.31-18,17.45H0V388.21c6.93-5.07,13.3-9.89,19-14.28,18.33-14.07,29.84-23.78,31-23.61C57.86,351.45,159.79,431.22,157.11,434.44Z" style="fill:#ad6359"></path><path d="M193.3,291.39c4.71-6.68,31.24-22.79,33.14-22.08C247.72,277.25,271,278,277.06,268c7.78-12.91-39.93-29-51.28-30.28-11.09-1.26-50.53,12.69-60,20.94s-47.23,55.19-47.23,55.19l43.59,30.24S189.65,296.55,193.3,291.39Z" style="fill:#ad6359"></path><path d="M193.3,291.39c4.71-6.68,31.24-22.79,33.14-22.08C247.72,277.25,271,278,277.06,268c7.78-12.91-39.93-29-51.28-30.28-11.09-1.26-50.53,12.69-60,20.94s-47.23,55.19-47.23,55.19l43.59,30.24S189.65,296.55,193.3,291.39Z" style="opacity:0.2"></path><path d="M189.5,285.81c5.84-6.28,35.68-19.33,37.56-18.33,21,11.23,45,15.3,52.75,5.7,9.92-12.35-37.34-35.73-48.94-38.65-11.34-2.86-54.28,6.14-65.34,13.39s-56.89,50.8-56.89,50.8l41,37.53S185,290.66,189.5,285.81Z" style="fill:#ad6359"></path><path d="M189.5,285.81c5.84-6.28,35.68-19.33,37.56-18.33,21,11.23,45,15.3,52.75,5.7,9.92-12.35-37.34-35.73-48.94-38.65-11.34-2.86-54.28,6.14-65.34,13.39s-56.89,50.8-56.89,50.8l41,37.53S185,290.66,189.5,285.81Z" style="opacity:0.1"></path><path d="M15.48,383.13s29.24-13.75,37.22-37.69C68,299.7,71.24,265.47,101,251.88c5.11-2.33,85.09-20.8,95.1-19.73C223,235,285.91,276,281.93,287.24c-8.65,24.43-84.47-13-84.47-13-15.54,13.08-35.67,16.24-35.24,16.62,15.8,14.2,9.83,41.56,9.83,41.56,9.16,7.49,8.23,43.95,6.56,61.85-1.15,12.28-11.25,40.33-38.45,55.58Z" style="fill:#ad6359"></path><path d="M153.67,291.42c15.34-1.12,29.89-8.15,41-18.62,2.1-.18,3.94.65,5.85,1.24,3,1,9.91,3.74,12.93,4.86,11.39,4.38,22.72,8.87,34.34,12.57,5.82,1.78,11.68,3.57,17.77,4-12.31.15-24.27-3.92-35.94-7.39-8.43-2.68-17.65-6-26-9a79.65,79.65,0,0,0-8-2.5l1.25-.58C185.61,287,169.42,294,153.67,291.42Z" style="fill:#263238"></path><path d="M162.22,290.89c10.57,9.27,16,25.52,11,39-.36.88-.73,1.74-1.14,2.58,0-1.42,0-2.78.14-4.17.2-13.21-4.28-25.59-10-37.39Z" style="fill:#263238"></path><path d="M125.61,292.59c10.66-2.57,24-4.63,24-4.63-3.68,3.6-12.86,8.55-19.9,12.05a99.71,99.71,0,0,0,12.5,16.62c6-3.66,14.07-7.73,14.73-8-1.68,3.19-7,8.53-10.74,12.13a107.41,107.41,0,0,0,11.5,9.68s23.89-12.16,34.79-48.88L178,260.3s-29.85-4.3-59.44,13A81.73,81.73,0,0,0,125.61,292.59Z" style="fill:#263238"></path><path d="M280.21,251c20.1,32.6,46.34,38.08,46.34,38.08a94.58,94.58,0,0,0,7.54-10.7c-10.17-5-24.13-13.94-24.13-13.94,6.67-.38,21.69,3.72,28.73,5.75.56-1.06,1.05-2.11,1.54-3.16.6-1.3,1.17-2.6,1.64-3.83-8.25-3.64-17.25-7.9-18.09-8.33,3.79-.19,12.77,1.43,20.12,3,6.75-19.26,5.58-34.11,5.58-34.11-33.12-9-60.8,3-60.8,3Z" style="fill:#263238"></path><path d="M259.87,286.79s61.35,7.82,63.09,19.32c2.69,17.76-35.78,5.87-35.78,5.87s77.1,50.43,67.92,71.06-69.19-24.21-69.19-24.21l-15.51,3.9S299.1,415.38,283,421.1s-44.13-22.43-63.08-85.86c0,0-30.71,29.93-38.88,18.36s5.11-27.75,50.38-60.5Z" style="fill:#263238"></path><path d="M259.87,286.79s61.35,7.82,63.09,19.32c2.69,17.76-35.78,5.87-35.78,5.87s77.1,50.43,67.92,71.06-69.19-24.21-69.19-24.21l-15.51,3.9S299.1,415.38,283,421.1s-44.13-22.43-63.08-85.86c0,0-30.71,29.93-38.88,18.36s5.11-27.75,50.38-60.5Z" style="fill:#fff;opacity:0.6000000000000001"></path><path d="M181,353.6a9.45,9.45,0,0,1,0-4.1,20.13,20.13,0,0,1,1.17-4l.38-1c.13-.32.3-.62.45-.93l.94-1.85q1-1.78,2.16-3.54a85.64,85.64,0,0,1,10.78-12.5l3-2.8c.51-.47,1-.95,1.52-1.4l1.58-1.32c2.13-1.75,4.17-3.6,6.41-5.2l3.29-2.47c1.09-.84,2.19-1.65,3.34-2.42,2.27-1.53,4.53-3.1,6.82-4.61-4.35,3.36-8.77,6.59-13,10.08s-8.41,7-12.33,10.83a91.26,91.26,0,0,0-10.85,12.23c-.76,1.13-1.51,2.27-2.24,3.42l-1,1.79c-.16.3-.34.59-.48.9l-.41.94a20.87,20.87,0,0,0-1.36,3.84l-.21,1c-.06.33-.08.67-.12,1A7.33,7.33,0,0,0,181,353.6Z" style="fill:#263238"></path><path d="M355.1,383a8.55,8.55,0,0,1-3.86,1.22c-.67.1-1.36.06-2,.1s-1.36-.09-2.05-.13a13.89,13.89,0,0,1-2-.31c-.67-.14-1.35-.24-2-.41-1.3-.39-2.64-.69-3.92-1.16a82.53,82.53,0,0,1-14.69-7.1c-2.29-1.45-4.64-2.83-6.84-4.43s-4.49-3-6.6-4.76l-3.22-2.49-1.61-1.24L304.68,361c-2.06-1.77-4.14-3.51-6.17-5.29,4.34,3.25,8.57,6.63,13,9.74,2.17,1.61,4.41,3.12,6.65,4.63s4.55,2.91,6.85,4.33c1.13.74,2.32,1.38,3.5,2s2.34,1.34,3.55,1.92l3.65,1.74c1.23.54,2.49,1,3.74,1.53s2.55.85,3.82,1.28c.65.19,1.31.31,2,.46a15,15,0,0,0,2,.37c.67.08,1.33.22,2,.24s1.34.07,2,0a12.32,12.32,0,0,0,2-.27,6.66,6.66,0,0,0,1-.27A4,4,0,0,0,355.1,383Z" style="fill:#263238"></path><path d="M244.26,373.76c1.12,2.41,2.27,4.8,3.47,7.16s2.4,4.72,3.67,7c2.53,4.65,5.18,9.23,8.13,13.61,1.47,2.2,3,4.36,4.61,6.43a68.5,68.5,0,0,0,5.23,5.92,30.85,30.85,0,0,0,6.16,4.88,15,15,0,0,0,7.45,2.3,14.65,14.65,0,0,1-7.68-1.89,31,31,0,0,1-6.44-4.76,73.06,73.06,0,0,1-10.12-12.35,142.49,142.49,0,0,1-8-13.8A148.74,148.74,0,0,1,244.26,373.76Z" style="fill:#263238"></path><path d="M322.53,310.79c-2.07.29-4.16.39-6.25.48s-4.19,0-6.28-.06a100.6,100.6,0,0,1-12.49-1.35,96.55,96.55,0,0,1-12.21-3c-2-.6-4-1.34-5.92-2.07-1-.36-1.94-.8-2.89-1.23s-1.91-.85-2.86-1.29c3.94,1.41,7.85,2.83,11.88,3.89,2,.57,4,1.05,6,1.53,1,.25,2,.42,3.06.63s2,.41,3.06.56A114.54,114.54,0,0,0,310,310.47,108.41,108.41,0,0,0,322.53,310.79Z" style="fill:#263238"></path><path d="M332.61,337.28S326.62,354,305,368.6c-15.87,10.76-40.18,20.36-76.73,21.31l-8.39-54.67s13.22-15.88,1.44-34.73a122.37,122.37,0,0,0,35.3-7.83,94.39,94.39,0,0,0,10.57-4.84s3.25,13.49,22.54,25.86Z" style="fill:#37474f"></path><path d="M262.43,302c0,2.42-1.18,4.39-2.63,4.39s-2.63-2-2.63-4.39,1.18-4.39,2.63-4.39S262.43,299.53,262.43,302Z" style="fill:#263238"></path><path d="M256.35,302.3c1.71,1.71,2.27,3.94,1.24,5s-3.25.48-5-1.24-2.27-3.94-1.24-5S254.63,300.58,256.35,302.3Z" style="fill:#263238"></path><path d="M252.28,306.84c2.43,0,4.39,1.18,4.39,2.64s-2,2.63-4.39,2.63-4.39-1.18-4.39-2.63S249.86,306.84,252.28,306.84Z" style="fill:#263238"></path><path d="M252.62,312.93c1.72-1.71,3.94-2.27,5-1.24s.47,3.25-1.24,5-3.94,2.27-5,1.24S250.91,314.64,252.62,312.93Z" style="fill:#263238"></path><path d="M257.17,317c0-2.42,1.18-4.39,2.63-4.39s2.63,2,2.63,4.39-1.18,4.4-2.63,4.4S257.17,319.42,257.17,317Z" style="fill:#263238"></path><path d="M263.25,316.66c-1.71-1.72-2.27-3.94-1.24-5s3.25-.47,5,1.24,2.27,3.94,1.24,5S265,318.37,263.25,316.66Z" style="fill:#263238"></path><path d="M267.32,312.11c-2.43,0-4.39-1.18-4.39-2.63s2-2.64,4.39-2.64,4.39,1.18,4.39,2.64S269.74,312.11,267.32,312.11Z" style="fill:#263238"></path><path d="M267,306c-1.72,1.72-3.94,2.27-5,1.24s-.47-3.25,1.24-5,3.94-2.27,5-1.25S268.69,304.31,267,306Z" style="fill:#263238"></path><circle cx="259.8" cy="309.48" r="4.5" style="fill:#263238"></circle><path d="M239.2,335.77c0,2.42-1.18,4.39-2.63,4.39s-2.64-2-2.64-4.39,1.18-4.39,2.64-4.39S239.2,333.34,239.2,335.77Z" style="fill:#263238"></path><path d="M233.11,336.1c1.72,1.72,2.27,3.94,1.25,5s-3.26.48-5-1.24-2.27-3.94-1.24-5S231.4,334.39,233.11,336.1Z" style="fill:#263238"></path><path d="M229.05,340.65c2.42,0,4.39,1.18,4.39,2.63s-2,2.64-4.39,2.64-4.39-1.18-4.39-2.64S226.62,340.65,229.05,340.65Z" style="fill:#263238"></path><path d="M229.39,346.74c1.71-1.72,3.94-2.27,5-1.24s.47,3.25-1.25,5-3.93,2.27-5,1.25S227.67,348.45,229.39,346.74Z" style="fill:#263238"></path><path d="M233.93,350.8c0-2.42,1.18-4.39,2.64-4.39s2.63,2,2.63,4.39-1.18,4.39-2.63,4.39S233.93,353.23,233.93,350.8Z" style="fill:#263238"></path><path d="M240,350.46c-1.71-1.71-2.27-3.94-1.24-5s3.25-.48,5,1.24,2.27,3.94,1.24,5S241.74,352.18,240,350.46Z" style="fill:#263238"></path><path d="M244.09,345.92c-2.43,0-4.39-1.18-4.39-2.64s2-2.63,4.39-2.63,4.39,1.18,4.39,2.63S246.51,345.92,244.09,345.92Z" style="fill:#263238"></path><path d="M243.75,339.83c-1.72,1.72-3.94,2.27-5,1.24s-.47-3.25,1.24-5,3.94-2.27,5-1.24S245.46,338.12,243.75,339.83Z" style="fill:#263238"></path><circle cx="236.57" cy="343.28" r="4.5" style="fill:#263238"></circle><path d="M278.33,356.52c0,2.42-1.18,4.39-2.63,4.39s-2.64-2-2.64-4.39,1.18-4.39,2.64-4.39S278.33,354.1,278.33,356.52Z" style="fill:#263238"></path><path d="M272.24,356.86c1.72,1.71,2.27,3.94,1.25,5s-3.26.47-5-1.25-2.27-3.93-1.24-5S270.53,355.14,272.24,356.86Z" style="fill:#263238"></path><path d="M268.18,361.4c2.42,0,4.39,1.18,4.39,2.64s-2,2.63-4.39,2.63-4.39-1.18-4.39-2.63S265.75,361.4,268.18,361.4Z" style="fill:#263238"></path><path d="M268.52,367.49c1.71-1.71,3.94-2.27,5-1.24s.47,3.25-1.25,5-3.93,2.27-5,1.24S266.8,369.21,268.52,367.49Z" style="fill:#263238"></path><path d="M273.06,371.56c0-2.43,1.18-4.39,2.64-4.39s2.63,2,2.63,4.39S277.15,376,275.7,376,273.06,374,273.06,371.56Z" style="fill:#263238"></path><path d="M279.15,371.22c-1.71-1.72-2.27-3.94-1.24-5s3.25-.47,5,1.24,2.27,3.94,1.24,5S280.87,372.93,279.15,371.22Z" style="fill:#263238"></path><path d="M283.22,366.67c-2.43,0-4.39-1.18-4.39-2.63s2-2.64,4.39-2.64,4.39,1.18,4.39,2.64S285.64,366.67,283.22,366.67Z" style="fill:#263238"></path><path d="M282.88,360.58c-1.72,1.72-3.94,2.28-5,1.25s-.47-3.26,1.24-5,3.94-2.27,5-1.24S284.59,358.87,282.88,360.58Z" style="fill:#263238"></path><circle cx="275.7" cy="364.04" r="4.5" style="fill:#263238"></circle><path d="M302.75,325.78c0,2.42-1.18,4.39-2.64,4.39s-2.63-2-2.63-4.39,1.18-4.39,2.63-4.39S302.75,323.35,302.75,325.78Z" style="fill:#263238"></path><path d="M296.66,326.12c1.71,1.71,2.27,3.93,1.24,5s-3.25.48-5-1.24-2.27-3.94-1.24-5S295,324.4,296.66,326.12Z" style="fill:#263238"></path><path d="M292.6,330.66c2.42,0,4.39,1.18,4.39,2.63s-2,2.64-4.39,2.64-4.4-1.18-4.4-2.64S290.17,330.66,292.6,330.66Z" style="fill:#263238"></path><path d="M292.93,336.75c1.72-1.72,3.94-2.27,5-1.24s.47,3.25-1.24,5-3.94,2.27-5,1.25S291.22,338.46,292.93,336.75Z" style="fill:#263238"></path><path d="M297.48,340.81c0-2.42,1.18-4.39,2.63-4.39s2.64,2,2.64,4.39-1.18,4.39-2.64,4.39S297.48,343.24,297.48,340.81Z" style="fill:#263238"></path><path d="M303.57,340.47c-1.72-1.71-2.27-3.93-1.24-5s3.25-.48,5,1.24,2.27,3.94,1.24,5S305.28,342.19,303.57,340.47Z" style="fill:#263238"></path><path d="M307.63,335.93c-2.42,0-4.39-1.18-4.39-2.64s2-2.63,4.39-2.63,4.39,1.18,4.39,2.63S310.06,335.93,307.63,335.93Z" style="fill:#263238"></path><path d="M307.29,329.84c-1.71,1.72-3.94,2.27-5,1.24s-.48-3.25,1.24-5,3.94-2.28,5-1.25S309,328.13,307.29,329.84Z" style="fill:#263238"></path><circle cx="300.11" cy="333.29" r="4.5" style="fill:#263238"></circle><path d="M259.38,290.76s2.86,13.16-6.33,17.5-20.82-9.65-20.82-9.65Z" style="fill:#263238"></path><path d="M259.38,290.76s2.86,13.16-6.33,17.5-20.82-9.65-20.82-9.65Z" style="fill:#fff;opacity:0.6000000000000001"></path><path d="M157.88,267.44c5.83,11.93,21.16,35.58,63.46,33.08A116.52,116.52,0,0,0,242,297.28a107.16,107.16,0,0,0,25.26-9.43c15-8.08,25.18-19.24,30.58-32.27a60.3,60.3,0,0,0,4.45-18.43c1.26-14-1.8-29.31-9-44.85-21.64-46.63-69.06-50.79-103.4-37.71C133.55,176,143.77,238.58,157.88,267.44Z" style="fill:#263238"></path><path d="M157.88,267.44c5.83,11.93,21.16,35.58,63.46,33.08A116.52,116.52,0,0,0,242,297.28a107.16,107.16,0,0,0,25.26-9.43c15-8.08,25.18-19.24,30.58-32.27a60.3,60.3,0,0,0,4.45-18.43c1.26-14-1.8-29.31-9-44.85-21.64-46.63-69.06-50.79-103.4-37.71C133.55,176,143.77,238.58,157.88,267.44Z" style="fill:#fff;opacity:0.6000000000000001"></path><path d="M254.48,238.74a23.23,23.23,0,0,1-.13,6.06,22.7,22.7,0,0,1-1.66,5.93,16.75,16.75,0,0,1-3.52,5.22,14.36,14.36,0,0,1-5.43,3.37,11.57,11.57,0,0,1-6.44.48,12.41,12.41,0,0,1-5.63-3,20.12,20.12,0,0,1-3.85-4.81,24.56,24.56,0,0,1-2.41-5.55,28.71,28.71,0,0,0,7.28,9.12,11.53,11.53,0,0,0,5,2.27,8.67,8.67,0,0,0,2.69.07,10.74,10.74,0,0,0,2.65-.62,14.9,14.9,0,0,0,8-7.37A34.2,34.2,0,0,0,254.48,238.74Z" style="fill:#263238"></path><path d="M264.6,232.92a11.74,11.74,0,1,0,6.8-15.14A11.74,11.74,0,0,0,264.6,232.92Z" style="fill:#455a64"></path><path d="M268.53,231.68a7.22,7.22,0,0,0,9.31,4.18,7.06,7.06,0,0,0,3.37-2.66,7,7,0,0,1-2.77,1.91A7.21,7.21,0,0,1,270,224.22,7.18,7.18,0,0,0,268.53,231.68Z" style="fill:#263238"></path><path d="M271.67,225.06a26,26,0,0,1,9.15,5.17c1.21,1.06-.35,3-1.56,1.94a24.31,24.31,0,0,0-8.61-4.84C269.12,226.85,270.16,224.58,271.67,225.06Z" style="fill:#263238"></path><path d="M271.89,232.66a25.64,25.64,0,0,1,5.17-9.15c1.05-1.21,3,.35,1.94,1.56a24.07,24.07,0,0,0-4.84,8.61C273.67,235.2,271.4,234.17,271.89,232.66Z" style="fill:#263238"></path><path d="M189.65,252.28a11.74,11.74,0,1,0,6.79-15.14A11.73,11.73,0,0,0,189.65,252.28Z" style="fill:#455a64"></path><path d="M193.57,251a7.22,7.22,0,0,0,9.31,4.18,7.13,7.13,0,0,0,3.38-2.66,7.1,7.1,0,0,1-2.78,1.91A7.21,7.21,0,0,1,195,243.58,7.23,7.23,0,0,0,193.57,251Z" style="fill:#263238"></path><path d="M196.71,244.42a25.88,25.88,0,0,1,9.15,5.17c1.21,1.06-.35,3-1.56,1.94a24.31,24.31,0,0,0-8.61-4.84C194.16,246.21,195.2,243.94,196.71,244.42Z" style="fill:#263238"></path><path d="M196.93,252a25.79,25.79,0,0,1,5.17-9.15c1.06-1.21,3,.35,1.94,1.56A24.22,24.22,0,0,0,199.2,253C198.71,254.56,196.45,253.53,196.93,252Z" style="fill:#263238"></path><path d="M162.62,262a60.41,60.41,0,0,0,6.23,9.93,68.57,68.57,0,0,0,7.77,8.73A64.38,64.38,0,0,0,196,293.5a61.06,61.06,0,0,0,11.07,3.64l1.42.34c.47.1,1,.17,1.43.26l2.88.5,2.91.33c.48.05,1,.12,1.45.16l1.46.09A95.26,95.26,0,0,0,242,297.28c-1.91.39-3.83.82-5.76,1.16s-3.88.62-5.84.79-3.91.38-5.88.37l-2.95.07-3-.11c-2,0-3.93-.32-5.89-.5l-2.92-.48c-.48-.09-1-.16-1.45-.26l-1.45-.33a61.7,61.7,0,0,1-11.25-3.61,65,65,0,0,1-33-32.37Z" style="fill:#263238"></path><path d="M299,207.44c-11.83,3.42-57.4.31-79.29-34.93,0,0,2.48,59.28-65.48,86.3,0,0-48.26-101.45,55.28-111.35,0,0,38.29-15.41,65,9C298.71,178.47,299,207.44,299,207.44Z" style="fill:#263238"></path><path d="M167.77,261.58s-14.91-12.69-24.62-6.49,1.95,27.51,14,28.92,15.67-8,15.67-8Z" style="fill:#263238"></path><path d="M167.77,261.58s-14.91-12.69-24.62-6.49,1.95,27.51,14,28.92,15.67-8,15.67-8Z" style="fill:#fff;opacity:0.6000000000000001"></path><path d="M145.41,259.5c-.19,0-.21.24,0,.26,8.45,1.21,13.24,6.55,16.75,12.36-2.64-2-6.08-2.75-10,.32-.21.16,0,.39.25.31,3.34-1.18,5.81-1.15,8.25.61a24.45,24.45,0,0,1,4.27,4.55c.43.52,1.74,0,1.41-.66a1,1,0,0,1-.08-.14C165.81,268.65,156.78,258.33,145.41,259.5Z" style="fill:#263238"></path><path d="M146.41,441.54s35.81-13.45,64.3-55.64c14-20.76,43.82-43.6,58.16-57.34C286.16,312,260.5,296.63,239.72,305c-25.25,10.21-37.92,24.7-46.76,31-15.14,10.84-30.1,2.18-30.1,2.18Z" style="fill:#ad6359"></path><path d="M272.46,324.25c3.9-5.81,2.15-11.64-3.48-15.29-10.06-7.19-23.21-5.89-33.73-.34-17.08,8-34.94,30.43-53,33.23a45.39,45.39,0,0,1-29-8.36c9.22,5.1,25.05,8.51,34.82,3.54,16.49-8.47,28.6-23.83,45.56-31.81,12.27-6,26.8-6.5,37.49,3,.45.5,1.25,1.24,1.68,1.77.2.29.89,1.2,1.08,1.49a10.46,10.46,0,0,1-1.4,12.81Z" style="fill:#263238"></path><path d="M109.16,483.12s-1,7.8-2.84,16.88H0V363.35a53.75,53.75,0,0,1,10.84.67L19,373.93l89.67,108.62Z" style="fill:#263238"></path><polygon points="10.84 364.02 30.32 347.66 130.63 466.9 109.16 483.12 10.84 364.02" style="fill:#263238"></polygon><polygon points="10.84 364.02 30.32 347.66 130.63 466.9 109.16 483.12 10.84 364.02" style="fill:#fff;opacity:0.6000000000000001"></polygon><path d="M500,226.14V423.67c-41.26-31.57-78.82-70.23-106.5-101.59-28.91-32.76-47.05-57.58-47.43-58.11-2.38-3.46,106.33-73.69,114.23-74.12,1.07-.06,9.87,8.74,24.16,22.05C489.09,216.22,494.3,221,500,226.14Z" style="fill:#ad6359"></path><path d="M327.32,118.24c-4.09-7.07-29.05-25.51-31-25-21.92,6-45.17,4.67-50.29-5.88-6.59-13.57,42.38-25.27,53.8-25.53C311,61.6,349,79.05,357.73,88.13s42,59.22,42,59.22l-46.14,26.19S330.49,123.71,327.32,118.24Z" style="fill:#ad6359"></path><path d="M327.32,118.24c-4.09-7.07-29.05-25.51-31-25-21.92,6-45.17,4.67-50.29-5.88-6.59-13.57,42.38-25.27,53.8-25.53C311,61.6,349,79.05,357.73,88.13s42,59.22,42,59.22l-46.14,26.19S330.49,123.71,327.32,118.24Z" style="opacity:0.2"></path><path d="M331.61,113c-5.25-6.79-33.79-22.48-35.75-21.65-21.9,9.29-46.23,11.17-53.05.91C234,79.1,283.22,60.09,295,58.22c11.55-1.82,53.5,11,63.86,19.23S411,133.18,411,133.18l-44.19,33.68S335.68,118.27,331.61,113Z" style="fill:#ad6359"></path><path d="M331.61,113c-5.25-6.79-33.79-22.48-35.75-21.65-21.9,9.29-46.23,11.17-53.05.91C234,79.1,283.22,60.09,295,58.22c11.55-1.82,53.5,11,63.86,19.23S411,133.18,411,133.18l-44.19,33.68S335.68,118.27,331.61,113Z" style="opacity:0.1"></path><path d="M485.47,233.3s-17.21-24-23-48.54c-11.06-46.93-11.24-81.31-39.69-97.53C417.9,84.44,339.92,58.82,329.85,59c-27,.45-93.37,35.56-90.42,47.12,6.4,25.11,85.29-5.29,85.29-5.29,14.29,14.43,34.06,19.39,33.6,19.73-17,12.72-13.54,40.51-13.54,40.51-9.8,6.62-12.17,43-12.12,61,0,12.34.46,36.17,26.17,53.81Z" style="fill:#ad6359"></path><path d="M366.79,121.85c-15.92,1.14-31.41-7.33-41.63-19.18l1.19.69c.1,0,0,0-.12,0-2.21.22-5.82,1.26-8,1.76-8.62,2.2-18.07,4.67-26.72,6.58-11.94,2.4-24.22,5.38-36.47,4.11,6.11.07,12.11-1.18,18.07-2.42,11.9-2.64,23.6-6.09,35.33-9.42,3.15-.85,10.23-3,13.31-3.67,2-.42,3.87-1.08,5.94-.71,10.11,11.43,24,19.74,39.14,22.24Z" style="fill:#263238"></path><path d="M358.32,120.55c-6.74,11.24-12.31,23.17-13.3,36.34,0,1.39-.1,2.75-.24,4.17-.34-.88-.63-1.77-.91-2.68-3.81-13.86,3.08-29.55,14.45-37.83Z" style="fill:#263238"></path><path d="M275.25,228.05c-.21-2.61-5-63.85-4.31-67.91l1,.16c-.65,3.95,4.27,67,4.32,67.67Z" style="fill:#263238"></path><path d="M273,165.33c3-.89,1.64-7.84-11.56-46.72-6.26-18.45-13.89-45.77-27.23-84.75,10,40,18.37,67.06,23.13,86C267.37,159.64,270,166.22,273,165.33ZM260.74,124c4.07,10.62,12.24,35.76,10.69,36.22S263.1,135.12,260.74,124Zm12.7,104" style="fill:#a6a6a6"></path><path d="M275.25,228c0-.54-1.16-53.57-3.54-67.71v0l-.77-.16c.18-.85.6-1,.88-1,.43,0,.78.4.88,1,2.38,14.2,3.53,67.31,3.55,67.85Z" style="fill:#263238"></path><path d="M349.43,266S318,244.14,300.77,196.23c-8.48-23.56-31.76-53-42.28-69.87-12.69-20.31,16-28.9,34-15.64,22,16.1,30.68,33.26,37.7,41.57,12,14.23,28.64,9.5,28.64,9.5Z" style="fill:#ad6359"></path><path d="M256.07,121.3a10.44,10.44,0,0,1,1.79-12.76c.28-.22,1.12-1,1.41-1.18.57-.39,1.47-.94,2.07-1.31,12.7-6.53,26.63-2.46,37.06,6.35,14.48,11.91,22.45,29.78,36.35,42,8.22,7.21,24.45,7.81,34.62,5.13a45.34,45.34,0,0,1-30.17,1c-16.83-7.14-28.65-33.27-43.22-45.23-8.83-8-21.27-12.46-32.78-8-6.34,2.14-9.49,7.36-7.13,14Z" style="fill:#263238"></path><path d="M500,205.54V441.88c-26.48-19.28-92-67.24-97.63-73.94-7.1-8.43-11.53-42.64-11.53-42.64l2.66-3.22,91-110.18,4.7-5.69A53.75,53.75,0,0,1,500,205.54Z" style="fill:#263238"></path><polygon points="489.16 206.21 469.68 189.85 369.37 309.09 390.84 325.3 489.16 206.21" style="fill:#263238"></polygon><polygon points="489.16 206.21 469.68 189.85 369.37 309.09 390.84 325.3 489.16 206.21" style="fill:#fff;opacity:0.6000000000000001"></polygon></g></svg>