<svg xmlns="http://www.w3.org/2000/svg" viewBox="0 0 500 500"><g id="freepik--background-complete--inject-48"><path d="M450.55,313.46a1.29,1.29,0,0,1,.14.32c.08.24.19.56.34,1s.32,1,.53,1.58a20.78,20.78,0,0,1,.66,2.18,72.93,72.93,0,0,1,2.56,14.26c.18,1.52.17,3.13.25,4.8s0,3.42-.07,5.22-.2,3.67-.49,5.57c-.13.95-.23,1.92-.38,2.89s-.36,2-.54,3a76.33,76.33,0,0,1-3.47,12.23A72.34,72.34,0,0,1,436,389.7a76.1,76.1,0,0,1-9.22,8.76l-2.37,1.85c-.79.59-1.6,1.13-2.39,1.69-1.54,1.14-3.18,2-4.7,3s-3.08,1.74-4.59,2.48-2.93,1.46-4.36,2a73.45,73.45,0,0,1-13.82,4.37,22.48,22.48,0,0,1-2.24.42l-1.64.26-1,.15a2.17,2.17,0,0,1-.35,0l.34-.09,1-.2,1.64-.31c.64-.11,1.39-.25,2.21-.47a75.41,75.41,0,0,0,13.72-4.51c1.42-.55,2.83-1.32,4.33-2s3-1.62,4.55-2.5,3.13-1.88,4.66-3c.78-.56,1.59-1.1,2.37-1.68l2.35-1.85a76.79,76.79,0,0,0,9.14-8.73,79,79,0,0,0,8.07-10.89,77.12,77.12,0,0,0,9.37-24.35c.18-1,.37-2,.55-2.94s.26-1.93.39-2.88c.29-1.89.34-3.75.51-5.53s.13-3.53.09-5.19,0-3.26-.21-4.78A76.24,76.24,0,0,0,452,318.56c-.19-.83-.42-1.56-.62-2.19l-.48-1.59c-.12-.41-.22-.73-.29-1A2.75,2.75,0,0,1,450.55,313.46Z" style="fill:#e0e0e0"></path><path d="M453.37,304.55l1.89,1.87c5.46,2.3,10,.28,14.55-3.47s6.33-13.23,5.87-16.11C469.46,287.81,456.62,300.81,453.37,304.55Z" style="fill:#f5f5f5"></path><path d="M415.16,313.05c-.29.15-.57.43-.53.72a.75.75,0,0,0,.32.41,19.85,19.85,0,0,0,13.61,4c5-.36,9.9-2.91,14.05-9.64C433.9,308.22,423.45,308.73,415.16,313.05Z" style="fill:#f5f5f5"></path><path d="M406.45,287.22a22.9,22.9,0,0,0,6.47,17.34c4.46,4.53,15.42,7.26,20.72,4.41L416,286A28,28,0,0,0,406.45,287.22Z" style="fill:#f5f5f5"></path><path d="M426.66,271.75c.92-2.94,1.33-5.09,2.86-7.53a1.11,1.11,0,0,1,1.41-.43c2.21.95,4.87,2.08,6.92,3l2.55,1.54-3.1,8.93-6.67,1.28-3.69-2.17Z" style="fill:#e0e0e0"></path><path d="M451.43,304.21l-12.23,4.61c-2.57,2.62-2.62,8.06-.74,10.47s4.79,3.78,7.64,4.89,5.83,2.07,8.23,4c.67-3.17,2.55-5.93,4.13-8.76s2.9-6.05,2.31-9.24S456,303.72,451.43,304.21Z" style="fill:#f5f5f5"></path><path d="M451.43,304.21a3.75,3.75,0,0,1,.61-.08,7.94,7.94,0,0,1,1.8.08,9.65,9.65,0,0,1,5.74,3.22,6.46,6.46,0,0,1,1.16,1.94,7.33,7.33,0,0,1,.37,2.44,13.4,13.4,0,0,1-1.24,5.25,56.62,56.62,0,0,1-2.82,5.27,20.61,20.61,0,0,0-2.46,5.86l-.09.41-.33-.26a19.81,19.81,0,0,0-4.85-2.64c-2.12-.86-4.27-1.56-6.24-2.56a13,13,0,0,1-5-4,7.08,7.08,0,0,1-1-2.86,10.25,10.25,0,0,1,0-2.87,8.17,8.17,0,0,1,2.06-4.76l0,0,0,0,9-3.29,2.46-.86a4.5,4.5,0,0,1,.87-.27,6.19,6.19,0,0,1-.84.38l-2.43,1L439.27,309l.07-.05a7.89,7.89,0,0,0-1.9,4.54,10.18,10.18,0,0,0,.07,2.75,6.5,6.5,0,0,0,1,2.66,12.62,12.62,0,0,0,4.82,3.78c1.93,1,4.07,1.67,6.21,2.54a20.22,20.22,0,0,1,5,2.72l-.41.15a21.11,21.11,0,0,1,2.54-6,56.57,56.57,0,0,0,2.83-5.21,13.13,13.13,0,0,0,1.26-5.07,7.13,7.13,0,0,0-.32-2.31,6.14,6.14,0,0,0-1.07-1.85,9.7,9.7,0,0,0-5.51-3.26A15.49,15.49,0,0,0,451.43,304.21Z" style="fill:#e0e0e0"></path><path d="M431,274.37a46.75,46.75,0,0,0-8.12-3.93c-.81-.31-1.84-.54-2.45.08a2.22,2.22,0,0,0-.47,1.31,18.42,18.42,0,0,0,.24,5.69l7.07,8.74,5.56-5.79Z" style="fill:#ebebeb"></path><path d="M447.18,266.51a13.53,13.53,0,0,0-4.49-3.92.82.82,0,0,0-1.29.24,20.68,20.68,0,0,0-4,9.81l3.53,6.11,8.79-3.71Z" style="fill:#ebebeb"></path><path d="M448.14,261.43c-2.46,4.56-4.74,11.74-4.16,16.89l3.95,28.36A13.25,13.25,0,0,0,460,300.84c2.58-4,3.15-9.47,2.4-14.14a36,36,0,0,0-5.29-13.09A125,125,0,0,0,448.14,261.43Z" style="fill:#f5f5f5"></path><path d="M460.32,300.41l.36-.22A21.14,21.14,0,0,0,470,283.45a27.37,27.37,0,0,0-6.77-18.69,30.82,30.82,0,0,0-7.87,8l.7,12.76Z" style="fill:#f5f5f5"></path><path d="M416.6,275.4a1.23,1.23,0,0,0-1.7,1.12c0,4.28-.44,8.8.24,13a24.66,24.66,0,0,0,6.4,13.36c4.57,5.12,17.3,8.55,24.37,5l-18.18-25A36.69,36.69,0,0,0,416.6,275.4Z" style="fill:#f5f5f5"></path><path d="M449.4,281.05c-3.61-4.93-9.56-7.44-15.22-9.74a2.24,2.24,0,0,0-1.45-.22,2.13,2.13,0,0,0-1.07,1.12,32.92,32.92,0,0,0-4.45,15.46,22.07,22.07,0,0,0,5.3,15,17.3,17.3,0,0,0,15,5.36h0a16.45,16.45,0,0,0,5.55-8.58,22.7,22.7,0,0,0,0-9.57A21.93,21.93,0,0,0,449.4,281.05Z" style="fill:#f5f5f5"></path><path d="M449.4,281.05a3.31,3.31,0,0,1,.36.43,15.15,15.15,0,0,1,.88,1.36,22,22,0,0,1,2.24,5.67,25.06,25.06,0,0,1,.67,9.36,14.91,14.91,0,0,1-1.84,5.46,16.2,16.2,0,0,1-4.06,4.87l0,0h-.06A17.5,17.5,0,0,1,430,299.68a23,23,0,0,1-3-9.67,27.87,27.87,0,0,1,.92-9.39,37,37,0,0,1,3.19-7.92,4.47,4.47,0,0,1,1.2-1.66,1.46,1.46,0,0,1,1.07-.18,4.42,4.42,0,0,1,.93.31c1.14.46,2.24.92,3.28,1.38a33.27,33.27,0,0,1,9.18,5.54,17.65,17.65,0,0,1,2,2.12l.45.62c.09.14.14.21.13.22a24.07,24.07,0,0,0-2.73-2.81,34.21,34.21,0,0,0-9.19-5.35c-1-.45-2.14-.89-3.28-1.35-.56-.23-1.17-.46-1.62-.15a4.23,4.23,0,0,0-1.05,1.51,37.36,37.36,0,0,0-3.1,7.84,27.48,27.48,0,0,0-.88,9.22,22.43,22.43,0,0,0,2.92,9.45,17,17,0,0,0,17,8.37l-.11,0a15.82,15.82,0,0,0,4-4.71,14.37,14.37,0,0,0,1.82-5.3,25.11,25.11,0,0,0-.55-9.23,23.37,23.37,0,0,0-2.09-5.67c-.33-.62-.62-1.08-.82-1.39A3,3,0,0,1,449.4,281.05Z" style="fill:#e0e0e0"></path><path d="M427.57,282.71c-.11.12-2.26-1.92-5.3-3.92s-5.74-3.24-5.67-3.39a6.35,6.35,0,0,1,1.84.67,29.42,29.42,0,0,1,4.12,2.29,28.14,28.14,0,0,1,3.7,2.91A6.13,6.13,0,0,1,427.57,282.71Z" style="fill:#e0e0e0"></path><path d="M445.11,308.34a2.36,2.36,0,0,1-.43.26,8.43,8.43,0,0,1-1.33.54,15.76,15.76,0,0,1-5.25.58,29.89,29.89,0,0,1-7.71-1.35,23.89,23.89,0,0,1-8.35-4.68,19.82,19.82,0,0,1-5.56-7.79,27.91,27.91,0,0,1-1.67-7.64c-.19-2.22-.21-4-.21-5.26,0-.57,0-1.05,0-1.43a2.42,2.42,0,0,1,0-.5,1.78,1.78,0,0,1,.07.49c0,.39,0,.86.07,1.43.07,1.24.14,3,.37,5.23a29.44,29.44,0,0,0,1.75,7.51,19.81,19.81,0,0,0,5.46,7.57,23.89,23.89,0,0,0,8.16,4.61,30.5,30.5,0,0,0,7.58,1.44,16.4,16.4,0,0,0,5.17-.41C444.48,308.62,445.09,308.29,445.11,308.34Z" style="fill:#e0e0e0"></path><path d="M433.64,309a7.11,7.11,0,0,1-2.75,1.08c-1.8.5-4.38.27-7.1-.18A23.49,23.49,0,0,1,417,307.7a12.39,12.39,0,0,1-1.82-1.17c-.4-.32-.6-.52-.58-.54s.94.63,2.57,1.38a27.53,27.53,0,0,0,6.7,2,20.23,20.23,0,0,0,6.94.34C432.58,309.37,433.61,308.9,433.64,309Z" style="fill:#e0e0e0"></path><path d="M448.14,261.43a3.22,3.22,0,0,1,.41.4l1.11,1.22c.49.53,1,1.2,1.7,2s1.37,1.69,2.14,2.71a63.16,63.16,0,0,1,4.94,7.53,38.33,38.33,0,0,1,4,10.26c1.8,7.72-.92,15.41-5.13,18.56a10.85,10.85,0,0,1-5.57,2.36,6.5,6.5,0,0,1-2.23-.09,20.75,20.75,0,0,0,2.2-.11,11,11,0,0,0,5.37-2.45c4-3.1,6.61-10.6,4.85-18.16A38.88,38.88,0,0,0,458,275.5a70.37,70.37,0,0,0-4.81-7.54c-.76-1-1.44-2-2.08-2.75s-1.16-1.48-1.62-2l-1-1.28A1.93,1.93,0,0,1,448.14,261.43Z" style="fill:#e0e0e0"></path><path d="M470.07,282.18a3,3,0,0,1,.07.85,21.4,21.4,0,0,1-.1,2.31,17,17,0,0,1-2.2,7.3,29.78,29.78,0,0,1-4.76,6,10.8,10.8,0,0,1-1.89,1.35,2.72,2.72,0,0,1-.78.34c-.05-.09,1-.63,2.42-2a35.4,35.4,0,0,0,4.57-6,18.5,18.5,0,0,0,2.27-7.07C469.94,283.38,470,282.18,470.07,282.18Z" style="fill:#e0e0e0"></path><path d="M451.92,317.72c-.16,0-.54-2.35-1.71-5s-2.6-4.61-2.47-4.7a15.47,15.47,0,0,1,4.18,9.74Z" style="fill:#e0e0e0"></path><path d="M444.51,377.47a26.43,26.43,0,0,0,33.37-14.39C465.83,362.46,451.24,365.65,444.51,377.47Z" style="fill:#ebebeb"></path><path d="M63.77,286a2.29,2.29,0,0,1-.19.29l-.59.84-1,1.34c-.39.53-.84,1.15-1.29,1.87a76.34,76.34,0,0,0-6.88,12.69c-.65,1.38-1.15,2.91-1.75,4.46s-1.06,3.23-1.6,4.94-1,3.51-1.31,5.39c-.19.94-.4,1.89-.57,2.86s-.29,2-.44,3A75.32,75.32,0,0,0,59,373.88l1.62,2.51c.56.81,1.14,1.58,1.7,2.36,1.08,1.58,2.32,3,3.42,4.38s2.33,2.65,3.5,3.83,2.27,2.35,3.43,3.34A76.48,76.48,0,0,0,84.21,399c.71.48,1.37.85,2,1.17l1.44.82.89.52c.2.12.3.18.29.19a1.82,1.82,0,0,1-.32-.14l-.91-.48-1.47-.78a22,22,0,0,1-2-1.13,72.45,72.45,0,0,1-11.65-8.61c-1.18-1-2.28-2.17-3.48-3.33s-2.33-2.5-3.54-3.83S63.07,380.6,62,379c-.56-.78-1.16-1.55-1.71-2.37l-1.64-2.51a76.26,76.26,0,0,1-5.87-11.28,78,78,0,0,1-4.14-13A79.27,79.27,0,0,1,47,336.29a77.05,77.05,0,0,1,.69-12.7l.45-3c.17-1,.39-1.92.58-2.86.34-1.89.91-3.67,1.35-5.42s1-3.39,1.63-5,1.13-3.08,1.79-4.46a73.56,73.56,0,0,1,7-12.66c.47-.72.93-1.33,1.33-1.85l1-1.32.64-.8C63.68,286.11,63.76,286,63.77,286Z" style="fill:#e0e0e0"></path><path d="M64,276.68l-2.4,1.17c-5.91.39-9.51-3-12.63-8s-1.69-14.56-.32-17.14C54.21,255.63,62.14,272.09,64,276.68Z" style="fill:#f5f5f5"></path><path d="M97.38,297.13a.83.83,0,0,1,.26.85.75.75,0,0,1-.43.3,19.87,19.87,0,0,1-14.16-.66c-4.62-2-8.42-6-10.17-13.68C81.22,286.48,90.94,290.35,97.38,297.13Z" style="fill:#f5f5f5"></path><path d="M114,275.53a22.91,22.91,0,0,1-11.74,14.31c-5.7,2.83-17,1.85-21-2.56l24.13-16A28,28,0,0,1,114,275.53Z" style="fill:#f5f5f5"></path><path d="M99.91,254.33c.09-3.07.4-5.24-.25-8a1.13,1.13,0,0,0-1.2-.87c-2.39.19-5.28.39-7.51.57l-2.92.63,0,9.45L94,259.45l4.19-.85Z" style="fill:#e0e0e0"></path><path d="M66,277,76,285.32c1.57,3.32-.14,8.49-2.71,10.15s-5.75,2-8.81,2.14-6.18.07-9.07,1.07c.4-3.21-.49-6.43-1.06-9.62s-.78-6.67.82-9.49S61.83,275.06,66,277Z" style="fill:#f5f5f5"></path><path d="M66,277a14.33,14.33,0,0,0-2.31-.61,9.69,9.69,0,0,0-6.27,1.3,5.78,5.78,0,0,0-1.62,1.4,7,7,0,0,0-1,2.08,13.19,13.19,0,0,0-.46,5.2,56.79,56.79,0,0,0,1,5.85,21.1,21.1,0,0,1,.45,6.5l-.34-.28a20.52,20.52,0,0,1,5.59-1c2.31-.12,4.56-.09,6.7-.37a12.72,12.72,0,0,0,5.78-2,6.59,6.59,0,0,0,1.8-2.2,10,10,0,0,0,1-2.58,7.84,7.84,0,0,0-.32-4.9l0,.07-7.29-6.15-2-1.7A6.91,6.91,0,0,1,66,277a4.5,4.5,0,0,1,.73.53l2,1.62,7.42,6,0,0,0,0a8.26,8.26,0,0,1,.4,5.17,10.33,10.33,0,0,1-1,2.7,7.07,7.07,0,0,1-1.91,2.37,13.11,13.11,0,0,1-6,2.13c-2.19.3-4.46.27-6.74.39a19.93,19.93,0,0,0-5.45.93l-.39.13.05-.41a20.89,20.89,0,0,0-.42-6.34,52.54,52.54,0,0,1-1-5.91,13.3,13.3,0,0,1,.53-5.36,7.24,7.24,0,0,1,1.14-2.19,6.19,6.19,0,0,1,1.73-1.45,9.65,9.65,0,0,1,6.48-1.19,7.9,7.9,0,0,1,1.72.51A2.45,2.45,0,0,1,66,277Z" style="fill:#e0e0e0"></path><path d="M95,255.41a47.4,47.4,0,0,1,9-1.09c.86,0,1.91.09,2.28.88a2.2,2.2,0,0,1,0,1.39,18.33,18.33,0,0,1-2.07,5.3l-9.52,6-3.39-7.29Z" style="fill:#ebebeb"></path><path d="M82.21,242.72a13.51,13.51,0,0,1,5.52-2.25,1,1,0,0,1,.83.1,1,1,0,0,1,.31.54,20.65,20.65,0,0,1,.56,10.58l-5.32,4.62L77,250Z" style="fill:#ebebeb"></path><path d="M83,237.6c.84,5.12.67,12.64-1.55,17.33l-13,25.54A13.28,13.28,0,0,1,58.94,271c-1.15-4.59.1-10,2.32-14.15a36.06,36.06,0,0,1,9.26-10.66A127.22,127.22,0,0,1,83,237.6Z" style="fill:#f5f5f5"></path><path d="M58.77,270.52l-.27-.33a21.15,21.15,0,0,1-3.42-18.87,27.4,27.4,0,0,1,12.48-15.48A30.68,30.68,0,0,1,72.41,246L67.6,257.79Z" style="fill:#f5f5f5"></path><path d="M108.24,261.06a1.22,1.22,0,0,1,1.24,1.61c-1.36,4.06-2.43,8.47-4.45,12.23a24.67,24.67,0,0,1-10.39,10.56c-6,3.36-19.14,2.47-24.68-3.14l25.31-17.74A36.65,36.65,0,0,1,108.24,261.06Z" style="fill:#f5f5f5"></path><path d="M75.38,255.75c5-3.49,11.47-3.93,17.56-4.27a2.21,2.21,0,0,1,1.44.26,2.1,2.1,0,0,1,.65,1.4,33,33,0,0,1-.81,16.08,22.07,22.07,0,0,1-9.88,12.45,17.31,17.31,0,0,1-15.92.2h0A16.64,16.64,0,0,1,66,272a22.84,22.84,0,0,1,3.13-9.05A22,22,0,0,1,75.38,255.75Z" style="fill:#f5f5f5"></path><path d="M75.38,255.75a3.12,3.12,0,0,1-.42.35c-.29.23-.71.57-1.23,1a23.18,23.18,0,0,0-3.82,4.69,25,25,0,0,0-3.52,8.55,14.26,14.26,0,0,0,0,5.6,15.74,15.74,0,0,0,2.22,5.74l-.09-.07a17,17,0,0,0,18.8-2.4,22.42,22.42,0,0,0,5.83-8,27.63,27.63,0,0,0,2.16-9,36.87,36.87,0,0,0-.39-8.43,4.18,4.18,0,0,0-.5-1.76c-.33-.44-1-.43-1.57-.39-1.24.06-2.42.13-3.55.21A34.32,34.32,0,0,0,78.88,254a24.87,24.87,0,0,0-3.5,1.77,1.06,1.06,0,0,1,.21-.17l.62-.43a16.56,16.56,0,0,1,2.59-1.36,33.29,33.29,0,0,1,10.48-2.26c1.13-.09,2.32-.17,3.55-.24a4.6,4.6,0,0,1,1,0,1.49,1.49,0,0,1,1,.52,4.47,4.47,0,0,1,.6,2,36.92,36.92,0,0,1,.44,8.52,27.78,27.78,0,0,1-2.18,9.18,22.79,22.79,0,0,1-6,8.18,17.47,17.47,0,0,1-19.36,2.42l0,0,0-.05A16.44,16.44,0,0,1,66,276.07a14.85,14.85,0,0,1,0-5.76,25,25,0,0,1,3.67-8.63,22.18,22.18,0,0,1,4-4.64,15,15,0,0,1,1.28-1A2,2,0,0,1,75.38,255.75Z" style="fill:#e0e0e0"></path><path d="M95.49,264.41a6,6,0,0,1,1.71-.94,28.08,28.08,0,0,1,4.45-1.55,30.29,30.29,0,0,1,4.64-.83,6.22,6.22,0,0,1,1.95,0c0,.16-2.94.44-6.46,1.36S95.55,264.56,95.49,264.41Z" style="fill:#e0e0e0"></path><path d="M70.58,283s.5.48,1.53,1.16a16.22,16.22,0,0,0,4.75,2.07,31.14,31.14,0,0,0,7.64,1.1,24,24,0,0,0,9.22-1.71,19.87,19.87,0,0,0,7.62-5.39,29.11,29.11,0,0,0,4.09-6.53c.93-2,1.58-3.68,2-4.83.21-.53.39-1,.53-1.32a2.23,2.23,0,0,1,.22-.45,1.5,1.5,0,0,1-.12.48c-.12.37-.27.82-.44,1.36-.41,1.18-1,2.87-1.91,4.91a27.82,27.82,0,0,1-4.06,6.69,19.87,19.87,0,0,1-7.79,5.56,23.88,23.88,0,0,1-9.42,1.71,29.86,29.86,0,0,1-7.73-1.23A15.4,15.4,0,0,1,72,284.28a8,8,0,0,1-1.09-.94A2.52,2.52,0,0,1,70.58,283Z" style="fill:#e0e0e0"></path><path d="M81.23,287.28c0-.07.87.72,2.43,1.59s4,1.48,6.67,1.94a28,28,0,0,0,7,.3c1.78-.19,2.84-.57,2.87-.48s-.24.15-.72.33a13.06,13.06,0,0,1-2.11.51,23.31,23.31,0,0,1-7.11-.15c-2.72-.46-5.23-1.08-6.78-2.13A7,7,0,0,1,81.23,287.28Z" style="fill:#e0e0e0"></path><path d="M83,237.6a1.82,1.82,0,0,1-.47.34l-1.39.87c-.62.37-1.35.85-2.2,1.4s-1.81,1.19-2.85,1.92a69.07,69.07,0,0,0-7,5.57A39,39,0,0,0,62,256c-4.12,6.58-4.09,14.52-1.32,18.75A10.93,10.93,0,0,0,65,278.82a17.72,17.72,0,0,0,2,.82A6.17,6.17,0,0,1,64.9,279a10.86,10.86,0,0,1-4.51-4c-3-4.34-3-12.5,1.18-19.22a38.26,38.26,0,0,1,7.15-8.4,63.23,63.23,0,0,1,7.11-5.51c1.06-.71,2-1.35,2.91-1.87s1.61-1,2.24-1.32l1.45-.79A2.62,2.62,0,0,1,83,237.6Z" style="fill:#e0e0e0"></path><path d="M55.47,250.11c.08,0-.27,1.18-.64,3.07a18.58,18.58,0,0,0-.15,7.42,35.93,35.93,0,0,0,2.39,7.13c.87,1.71,1.73,2.57,1.65,2.64s-.26-.17-.63-.58a10.83,10.83,0,0,1-1.34-1.89,29.56,29.56,0,0,1-2.57-7.18,17,17,0,0,1,.29-7.62,19.86,19.86,0,0,1,.66-2.21A2.52,2.52,0,0,1,55.47,250.11Z" style="fill:#e0e0e0"></path><path d="M61.09,289.61A12.25,12.25,0,0,1,64,285.05a12.1,12.1,0,0,1,4.25-3.29c.09.13-1.91,1.46-3.87,3.64S61.24,289.69,61.09,289.61Z" style="fill:#e0e0e0"></path><path d="M48.7,348.53a26.42,26.42,0,0,1-26.89-24.45C33.4,327.41,46.18,335.16,48.7,348.53Z" style="fill:#ebebeb"></path><path d="M54.57,175.52l5,2.38a.91.91,0,0,1,.06,1.6l-4.78,2.95a1,1,0,0,0-.35.39l-2.49,5a.91.91,0,0,1-1.6.09l-2.84-4.72a.82.82,0,0,0-.37-.34l-5-2.38a.91.91,0,0,1,0-1.6L46.92,176a1,1,0,0,0,.34-.39l2.5-5a.91.91,0,0,1,1.6-.09l2.83,4.72A.9.9,0,0,0,54.57,175.52Z" style="fill:#e0e0e0"></path><path d="M415,54.45l3.52,1.87a.66.66,0,0,1,0,1.16l-3.54,2a.65.65,0,0,0-.26.26l-2,3.57a.65.65,0,0,1-1.15,0l-1.91-3.49a.65.65,0,0,0-.26-.26l-3.52-1.87a.66.66,0,0,1,0-1.16l3.54-2a.68.68,0,0,0,.26-.27l2-3.56a.66.66,0,0,1,1.16,0l1.9,3.5A.65.65,0,0,0,415,54.45Z" style="fill:#f5f5f5"></path><path d="M88.66,62.46l3,1.43a.56.56,0,0,1,0,1l-2.88,1.78a.47.47,0,0,0-.21.23l-1.51,3a.55.55,0,0,1-1,.06l-1.71-2.85a.45.45,0,0,0-.23-.2l-3-1.44a.55.55,0,0,1,0-1l2.88-1.78a.52.52,0,0,0,.21-.23l1.5-3a.55.55,0,0,1,1-.06l1.71,2.85A.66.66,0,0,0,88.66,62.46Z" style="fill:#f5f5f5"></path><path d="M430.37,435.35l5,2.38a.91.91,0,0,1,.06,1.6l-4.78,2.95a1,1,0,0,0-.35.39l-2.49,5a.91.91,0,0,1-1.6.09l-2.84-4.72a.93.93,0,0,0-.37-.34l-5-2.38a.91.91,0,0,1-.05-1.6l4.77-3a.92.92,0,0,0,.35-.38l2.5-5a.91.91,0,0,1,1.59-.1L430,435A1,1,0,0,0,430.37,435.35Z" style="fill:#e0e0e0"></path><path d="M278.19,469.32l5,2.39a.91.91,0,0,1,0,1.6l-4.78,2.95a.92.92,0,0,0-.35.38l-2.49,5a.92.92,0,0,1-1.6.09l-2.83-4.72a.84.84,0,0,0-.38-.34l-5-2.39a.91.91,0,0,1-.06-1.6l4.78-3a1,1,0,0,0,.35-.38l2.49-5a.92.92,0,0,1,1.6-.09l2.83,4.72A.84.84,0,0,0,278.19,469.32Z" style="fill:#e0e0e0"></path><path d="M62.62,201.83l2.06,1a.38.38,0,0,1,0,.66l-2,1.22a.31.31,0,0,0-.15.15l-1,2.08a.38.38,0,0,1-.66,0L59.72,205a.36.36,0,0,0-.16-.14l-2.05-1a.38.38,0,0,1,0-.66l2-1.22a.38.38,0,0,0,.15-.16l1-2.08a.38.38,0,0,1,.66,0l1.17,1.95A.4.4,0,0,0,62.62,201.83Z" style="fill:#e0e0e0"></path><path d="M441.86,157.18l4.05,1.95a.75.75,0,0,1,0,1.31l-3.9,2.41a.72.72,0,0,0-.29.31l-2,4.12a.74.74,0,0,1-1.3.07l-2.32-3.86a.74.74,0,0,0-.31-.27l-4.06-1.95a.75.75,0,0,1,0-1.31l3.9-2.41a.89.89,0,0,0,.29-.32l2-4.11a.75.75,0,0,1,1.31-.08l2.32,3.86A.7.7,0,0,0,441.86,157.18Z" style="fill:#e0e0e0"></path><path d="M447.53,234.23l4.06,1.94a.75.75,0,0,1,.05,1.31l-3.91,2.41a.79.79,0,0,0-.28.32l-2,4.11a.75.75,0,0,1-1.31.08l-2.32-3.86a.68.68,0,0,0-.3-.28l-4.06-1.95a.75.75,0,0,1-.05-1.31l3.91-2.41a.76.76,0,0,0,.28-.31l2-4.12a.75.75,0,0,1,1.31-.07l2.32,3.86A.81.81,0,0,0,447.53,234.23Z" style="fill:#f5f5f5"></path><path d="M444.73,244.77a.75.75,0,0,1-.65-.36l-2.32-3.86a.69.69,0,0,0-.29-.27l-4.06-1.95a.76.76,0,0,1-.43-.63.8.8,0,0,1,.38-.72l3.91-2.41a.78.78,0,0,0,.27-.3l2-4.12a.78.78,0,0,1,.67-.44.76.76,0,0,1,.68.36l2.32,3.86a.69.69,0,0,0,.29.27l4.06,2a.76.76,0,0,1,.43.64.79.79,0,0,1-.38.71l-3.9,2.42a.68.68,0,0,0-.28.3l-2,4.11a.76.76,0,0,1-.67.44Zm-.44-15h0a.75.75,0,0,0-.64.41l-2,4.12a.84.84,0,0,1-.3.32l-3.9,2.42a.71.71,0,0,0,0,1.26l4.06,2a.74.74,0,0,1,.32.29l2.31,3.86a.71.71,0,0,0,.61.33h0a.73.73,0,0,0,.63-.41l2-4.11a.8.8,0,0,1,.3-.33l3.91-2.41a.76.76,0,0,0,.35-.67.69.69,0,0,0-.4-.59l-4.06-1.95a.79.79,0,0,1-.31-.29l-2.32-3.86A.71.71,0,0,0,444.29,229.76Z" style="fill:#e0e0e0"></path><path d="M457.45,177.49l2.31,1.11a.43.43,0,0,1,0,.75l-2.22,1.37a.42.42,0,0,0-.17.18l-1.16,2.34a.42.42,0,0,1-.74,0l-1.32-2.19a.37.37,0,0,0-.17-.16l-2.32-1.11a.43.43,0,0,1,0-.75l2.22-1.37a.35.35,0,0,0,.16-.18l1.16-2.34a.43.43,0,0,1,.75,0l1.32,2.19A.37.37,0,0,0,457.45,177.49Z" style="fill:#e0e0e0"></path><path d="M124.64,35.88,127,37a.43.43,0,0,1,0,.75l-2.23,1.37a.46.46,0,0,0-.16.18l-1.16,2.34a.42.42,0,0,1-.74,0l-1.32-2.19a.46.46,0,0,0-.18-.16l-2.31-1.11a.42.42,0,0,1,0-.74l2.23-1.38a.4.4,0,0,0,.16-.18l1.16-2.34a.42.42,0,0,1,.74,0l1.32,2.19A.46.46,0,0,0,124.64,35.88Z" style="fill:#e0e0e0"></path><path d="M447.44,419.53l2.05,1a.38.38,0,0,1,0,.66l-2,1.22a.33.33,0,0,0-.15.16l-1,2.08a.38.38,0,0,1-.66,0l-1.17-1.95a.43.43,0,0,0-.15-.15l-2.06-1a.38.38,0,0,1,0-.66l2-1.22a.36.36,0,0,0,.14-.16l1-2.08a.38.38,0,0,1,.66,0l1.17,1.95A.39.39,0,0,0,447.44,419.53Z" style="fill:#e0e0e0"></path><path d="M75.25,417l2,1a.37.37,0,0,1,0,.66l-2,1.22a.43.43,0,0,0-.14.16l-1,2.08a.38.38,0,0,1-.66,0l-1.18-1.95a.34.34,0,0,0-.15-.14l-2-1a.37.37,0,0,1,0-.66l2-1.22a.34.34,0,0,0,.14-.15l1-2.08a.37.37,0,0,1,.66,0l1.17,1.95A.43.43,0,0,0,75.25,417Z" style="fill:#e0e0e0"></path><polygon points="250 70.68 282.74 8.75 262.1 75.69 329.04 55.05 267.11 87.79 329.04 120.53 262.1 99.89 282.74 166.84 250 104.91 217.26 166.84 237.9 99.89 170.96 120.53 232.89 87.79 170.96 55.05 237.9 75.69 217.26 8.75 250 70.68" style="fill:#f5f5f5"></polygon><path d="M97,98A18.65,18.65,0,0,0,79.7,109.71a18.63,18.63,0,0,1,29.71,20.82A18.63,18.63,0,0,0,97,98Z" style="fill:#e0e0e0"></path><path d="M147.16,64.73a18.58,18.58,0,0,0-13.72,6,18.6,18.6,0,0,1,10.9,31,18.64,18.64,0,1,0,2.82-37.06Z" style="fill:#ebebeb"></path><path d="M411.78,103.25a18.66,18.66,0,0,1,18.07,10.54,18.63,18.63,0,0,0-30,16,18.36,18.36,0,0,0,1.8,6.8,18.63,18.63,0,0,1,10.15-33.33Z" style="fill:#e0e0e0"></path><path d="M356.46,64.77a18.55,18.55,0,0,1,14.09,5.1,18.61,18.61,0,0,0-8.76,31.69,18.35,18.35,0,0,1-2.8.42,18.65,18.65,0,1,1-2.53-37.21Z" style="fill:#ebebeb"></path><path d="M251.63,223.69v-5.12a.13.13,0,1,0-.25,0v5.12a.13.13,0,1,0,.25,0Z" style="fill:#e0e0e0"></path><rect x="213.43" y="349.37" width="76.14" height="6.76" style="fill:#ebebeb"></rect><rect x="210.95" y="347.26" width="81.11" height="3.37" rx="1.63" style="fill:#ebebeb"></rect><rect x="223.11" y="345.5" width="56.79" height="2.25" style="fill:#ebebeb"></rect><rect x="225.07" y="328.07" width="52.86" height="17.43" style="fill:#ebebeb"></rect><rect x="220.72" y="322.31" width="61.57" height="3.66" rx="1.76" style="fill:#ebebeb"></rect><rect x="223.83" y="325.96" width="55.34" height="2.66" style="fill:#ebebeb"></rect><rect x="239.34" y="299.73" width="24.32" height="22.58" style="fill:#ebebeb"></rect><polygon points="231.75 295.01 241 289.54 262 289.54 271.26 295.01 263.83 299.73 239.52 299.73 231.75 295.01" style="fill:#ebebeb"></polygon><polygon points="233.64 273.45 244.18 268.73 258.66 268.73 269.37 273.21 261.96 278.92 240.96 278.92 233.64 273.45" style="fill:#ebebeb"></polygon><polygon points="237.3 257.54 248.48 252.81 254.86 252.81 265.7 257.29 258.94 262.51 244.46 262.51 237.3 257.54" style="fill:#ebebeb"></polygon><polygon points="244.79 245.6 250.07 243.37 253.09 243.37 258.22 245.49 254.86 247.96 248.49 247.96 244.79 245.6" style="fill:#ebebeb"></polygon><rect x="241" y="278.92" width="21" height="10.63" style="fill:#ebebeb"></rect><rect x="244.26" y="262.51" width="14.48" height="6.22" style="fill:#ebebeb"></rect><rect x="248.32" y="247.64" width="6.36" height="5.17" style="fill:#ebebeb"></rect><rect x="249.94" y="233.18" width="3.13" height="10.19" style="fill:#ebebeb"></rect><path d="M255,238.23c0,1.55-1.55,2.81-3.47,2.81s-3.46-1.26-3.46-2.81,1.55-2.82,3.46-2.82S255,236.68,255,238.23Z" style="fill:#ebebeb"></path><path d="M254,233.18a2.55,2.55,0,1,1-2.5-2A2.3,2.3,0,0,1,254,233.18Z" style="fill:#ebebeb"></path><path d="M253.23,222.11a1.76,1.76,0,1,1-1.73-1.4A1.59,1.59,0,0,1,253.23,222.11Z" style="fill:#ebebeb"></path><polygon points="250.24 231.45 250.62 222.71 252.44 222.71 252.76 231.45 250.24 231.45" style="fill:#ebebeb"></polygon><path d="M289.72,350.65c0,.15-17.11.26-38.22.26s-38.21-.11-38.21-.26,17.1-.26,38.21-.26S289.72,350.51,289.72,350.65Z" style="fill:#e0e0e0"></path><path d="M280.75,347.21c0,.14-13.1.26-29.25.26s-29.24-.12-29.24-.26,13.09-.26,29.24-.26S280.75,347.06,280.75,347.21Z" style="fill:#e0e0e0"></path><path d="M279.07,328.53c0,.15-12.34.27-27.57.27s-27.57-.12-27.57-.27,12.34-.26,27.57-.26S279.07,328.39,279.07,328.53Z" style="fill:#e0e0e0"></path><path d="M279.82,326.06c0,.15-12.68.26-28.32.26s-28.32-.11-28.32-.26,12.68-.26,28.32-.26S279.82,325.92,279.82,326.06Z" style="fill:#e0e0e0"></path><path d="M277.47,322.35c0,.15-11.63.26-26,.26s-26-.11-26-.26,11.63-.26,26-.26S277.47,322.21,277.47,322.35Z" style="fill:#e0e0e0"></path><path d="M263.72,299.84c0,.15-5.47.27-12.22.27s-12.21-.12-12.21-.27,5.47-.26,12.21-.26S263.72,299.7,263.72,299.84Z" style="fill:#e0e0e0"></path><path d="M262,289.54a103.91,103.91,0,0,1-10.5.26,103.91,103.91,0,0,1-10.5-.26c0-.14,4.7-.26,10.5-.26S262,289.4,262,289.54Z" style="fill:#e0e0e0"></path><path d="M262,278.92c0,.14-4.7.26-10.5.26s-10.5-.12-10.5-.26a103.91,103.91,0,0,1,10.5-.26A103.91,103.91,0,0,1,262,278.92Z" style="fill:#e0e0e0"></path><path d="M258.74,268.73a51.25,51.25,0,0,1-7.24.26,51.25,51.25,0,0,1-7.24-.26,49.51,49.51,0,0,1,7.24-.26A49.51,49.51,0,0,1,258.74,268.73Z" style="fill:#e0e0e0"></path><path d="M258.74,262.51a51.25,51.25,0,0,1-7.24.26,51.25,51.25,0,0,1-7.24-.26,49.51,49.51,0,0,1,7.24-.26A49.51,49.51,0,0,1,258.74,262.51Z" style="fill:#e0e0e0"></path><path d="M254.69,252.81a19.7,19.7,0,0,1-6.38,0,19.7,19.7,0,0,1,6.38,0Z" style="fill:#e0e0e0"></path><path d="M254.69,248.16a19,19,0,0,1-6.38,0,19.7,19.7,0,0,1,6.38,0Z" style="fill:#e0e0e0"></path><path d="M253.07,243.37c0,.14-.7.26-1.57.26s-1.56-.12-1.56-.26.7-.26,1.56-.26S253.07,243.23,253.07,243.37Z" style="fill:#e0e0e0"></path></g><g id="freepik--hand-3--inject-48"><path d="M351.1,376.76s-64.5-36.38-73.39-92.36c0,0-6.36-21.67-2.19-38.17s10.54-22.47,14.52-33,5.57-24.45,10.14-26.44,7.55-1.39,9.54,5,7.76,16.1-6.16,36c0,0,.6,8.75.2,9.94,0,0,8.55-19.09,33.8-18.69,0,0-.4-2.59,2-9s9.94-17.3,9.94-17.3c.39-1,1.61-5,1.61-5a59,59,0,0,1-1.81-23.06s-8.55-3.78-8.55-17.5,5.76-19.68,5.76-19.68-2.78-12.72,2.59-16.9,6.36-2,10.74,9.74,18.09,30.82,20.47,49.31,0,28.23,0,28.23,8.16,7.16,9.15,20.48a89,89,0,0,1-1.28,23.5s2.06-8.58,8-10c0,0,3-9.67,9.76-16.11,0,0-7.26-10.72-5.76-21.67,2.08-15.26,10.14-19.69,12.12-12.53s5.43,22.74,8.16,31.22c3.36,10.45-1.72,16.26-6.69,24.41s-12.2,18.13-15.58,29.27-4.57,26.24-14.32,41.95-12.65,18.39-12.65,18.39Z" style="fill:#ae7461"></path><path d="M319.68,299.41a3.46,3.46,0,0,1,.28-.68c.2-.44.53-1.06.89-1.9a57.81,57.81,0,0,0,2.71-7.21,52.34,52.34,0,0,0,2.11-11.2,46.75,46.75,0,0,0-1-13.88,42.43,42.43,0,0,0-5.38-12.81,39.44,39.44,0,0,0-7.36-8.66,36.89,36.89,0,0,0-6.26-4.47c-.78-.48-1.43-.75-1.85-1a5,5,0,0,1-.64-.37,4.78,4.78,0,0,1,.69.27c.43.21,1.1.46,1.9.91a34.59,34.59,0,0,1,6.4,4.37,39.21,39.21,0,0,1,7.52,8.68,42.1,42.1,0,0,1,5.49,13,46.4,46.4,0,0,1,1,14,50.41,50.41,0,0,1-2.24,11.28,51.24,51.24,0,0,1-2.88,7.19c-.38.83-.75,1.44-1,1.86A5.41,5.41,0,0,1,319.68,299.41Z" style="fill:#6f4439"></path><path d="M304.29,235.36a9.67,9.67,0,0,1-1.91,4.6,9.82,9.82,0,0,1-3.62,3.42c-.1-.13,1.66-1.49,3.19-3.72A47.47,47.47,0,0,0,304.29,235.36Z" style="fill:#6f4439"></path><path d="M303,226.82a8.71,8.71,0,0,1-2.65,2.55,8.91,8.91,0,0,1-3.26,1.71,25.61,25.61,0,0,1,2.95-2.14A27.64,27.64,0,0,1,303,226.82Z" style="fill:#6f4439"></path><path d="M380.68,251.6a2,2,0,0,1-.23-.56c-.13-.37-.29-.92-.55-1.62a41.34,41.34,0,0,0-2.55-5.77,38.2,38.2,0,0,0-5.38-7.6,54.44,54.44,0,0,0-8.59-7.53,55.33,55.33,0,0,0-9.88-5.76,41.39,41.39,0,0,0-8.87-2.88,41,41,0,0,0-6.25-.79c-.74-.05-1.32,0-1.71-.05a2.92,2.92,0,0,1-.61,0,2.41,2.41,0,0,1,.6-.06c.4,0,1-.06,1.73,0a36.32,36.32,0,0,1,6.32.63,40.3,40.3,0,0,1,9,2.8,54.22,54.22,0,0,1,10,5.77,53.55,53.55,0,0,1,8.65,7.64,37.76,37.76,0,0,1,5.35,7.75,36.93,36.93,0,0,1,2.41,5.87c.23.71.36,1.28.46,1.66A3.88,3.88,0,0,1,380.68,251.6Z" style="fill:#6f4439"></path><path d="M387.47,251.65a4.35,4.35,0,0,1-.82,0c-.53,0-1.3-.08-2.31-.05a42.33,42.33,0,0,0-8.44.84,43.57,43.57,0,0,0-11.83,4.19,41,41,0,0,0-19.82,22.63,43.42,43.42,0,0,0-2.59,12.28,42.72,42.72,0,0,0,.28,8.48c.1,1,.29,1.76.36,2.28a4.79,4.79,0,0,1,.1.81,4.62,4.62,0,0,1-.21-.79c-.1-.52-.32-1.27-.45-2.27a39.62,39.62,0,0,1-.45-8.54,43,43,0,0,1,2.51-12.41,40.9,40.9,0,0,1,20.05-22.9,42.91,42.91,0,0,1,12-4.12,39.53,39.53,0,0,1,8.51-.68c1,0,1.79.12,2.32.15A4.83,4.83,0,0,1,387.47,251.65Z" style="fill:#6f4439"></path><path d="M383.56,200.85s-15.9-19.91-40-23.22a279.54,279.54,0,0,0-33.21-2.83,3.3,3.3,0,0,0-3.18,4.41,13.82,13.82,0,0,0,6.5,7.15c8.28,4.76,23.73,10.72,35.16,7.39,0,0,8.06,14.44,21.59,17.94L368,231.92" style="fill:#ae7461"></path><path d="M368,231.92s0-.12,0-.35.06-.6.1-1c.11-.93.25-2.26.44-4,.4-3.5,1-8.55,1.71-14.88l.12.18a30.82,30.82,0,0,1-11.57-6.13,43.22,43.22,0,0,1-5.4-5.28,46.08,46.08,0,0,1-4.78-6.58l.26.11a28.27,28.27,0,0,1-9.69.9A49.39,49.39,0,0,1,329,193a71.16,71.16,0,0,1-10.23-3.78c-1.68-.79-3.37-1.63-5-2.57a16.9,16.9,0,0,1-4.52-3.57,11.67,11.67,0,0,1-2.4-4.15,3.59,3.59,0,0,1,2-4.13,5.15,5.15,0,0,1,2.37-.29l2.28.07c1.51,0,3,.12,4.5.2,5.94.34,11.66.88,17.1,1.51,2.71.31,5.36.65,7.93,1a59.59,59.59,0,0,1,7.39,1.54A58.71,58.71,0,0,1,362.94,184a74.24,74.24,0,0,1,15.75,11.59c1.67,1.6,2.9,2.92,3.7,3.84.4.45.7.81.89,1.06a3,3,0,0,1,.28.38l-.32-.35-.93-1c-.82-.9-2.07-2.19-3.76-3.76a76,76,0,0,0-15.79-11.42,58.46,58.46,0,0,0-19.82-6.52q-3.84-.51-7.92-1c-5.43-.61-11.14-1.14-17.07-1.47-1.48-.08-3-.15-4.49-.2l-2.27-.06a4.62,4.62,0,0,0-2.15.25,3,3,0,0,0-1.73,3.52,11.07,11.07,0,0,0,2.28,3.93,16.49,16.49,0,0,0,4.38,3.47c1.64.93,3.31,1.76,5,2.55a71.37,71.37,0,0,0,10.15,3.77,49.29,49.29,0,0,0,10.11,1.83,28,28,0,0,0,9.53-.86l.17-.05.1.15a44.91,44.91,0,0,0,4.71,6.52,41.84,41.84,0,0,0,5.32,5.26,30.53,30.53,0,0,0,11.4,6.12l.14,0,0,.14c-.79,6.32-1.42,11.37-1.86,14.86-.22,1.71-.39,3.05-.52,4-.06.43-.11.77-.14,1A2.07,2.07,0,0,1,368,231.92Z" style="fill:#6f4439"></path><g style="opacity:0.1"><path d="M313.18,174.84a1.87,1.87,0,0,0-.56,2.37,4.91,4.91,0,0,0,1.88,1.85,28.54,28.54,0,0,0,13.65,4.49,5.58,5.58,0,0,0,3.61-.68c1.59-1.12,1.76-4.08,1.77-6Z" style="fill:#fff"></path></g><g style="opacity:0.1"><path d="M412.15,182.53a4.2,4.2,0,0,0-3.31,2.22,8.46,8.46,0,0,0-.95,4,17.12,17.12,0,0,0,1.34,7.14,7.62,7.62,0,0,0,2.92,3.76,3.66,3.66,0,0,0,4.46-.41Z" style="fill:#fff"></path></g><g style="opacity:0.1"><path d="M301.1,194.55a5.29,5.29,0,0,0-4.76-2.4l-5.77,19.92c1.33,1.76,4.09,1.91,6,.81a10,10,0,0,0,3.92-5.18,23.37,23.37,0,0,0,1.62-8.14A9.66,9.66,0,0,0,301.1,194.55Z" style="fill:#fff"></path></g><g style="opacity:0.1"><path d="M356.67,114.25a5,5,0,0,0-3.05,4.14,12,12,0,0,0,.8,5.32,39.87,39.87,0,0,0,3.76,8c.68,1.13,1.58,2.33,2.89,2.54a3.28,3.28,0,0,0,2.63-.93,7.54,7.54,0,0,0,1.75-1.77Z" style="fill:#fff"></path></g><path d="M333.56,178.08a3.67,3.67,0,0,1,.07,1.16,7.06,7.06,0,0,1-.68,3.12,3.49,3.49,0,0,1-1.65,1.56,5.91,5.91,0,0,1-2.54.42,27.3,27.3,0,0,1-5.71-.8,26.49,26.49,0,0,1-9.46-4.4,3.54,3.54,0,0,1-1.12-1.49,2.2,2.2,0,0,1,0-1.41c.27-.77.79-.9.77-.87a1.94,1.94,0,0,0-.57.93,2,2,0,0,0,.1,1.25,3.31,3.31,0,0,0,1.08,1.3,28.94,28.94,0,0,0,14.95,5,5.59,5.59,0,0,0,2.36-.34,3.14,3.14,0,0,0,1.5-1.34,7.61,7.61,0,0,0,.8-3A6.47,6.47,0,0,1,333.56,178.08Z" style="fill:#6f4439"></path><path d="M361.34,183.08a2.43,2.43,0,0,1-.31-.52c-.2-.35-.46-.87-.77-1.56a34.19,34.19,0,0,1-2.09-6.05,36.82,36.82,0,0,1-1.07-9.43,45.49,45.49,0,0,1,.47-5.58,9,9,0,0,0-.76-5.69,24.39,24.39,0,0,0-3.82-4.52,26.26,26.26,0,0,1-3.37-4.5,26.66,26.66,0,0,1-3.31-8.9,25.8,25.8,0,0,1-.32-6.39,15.33,15.33,0,0,1,.21-1.73,3.21,3.21,0,0,1,.12-.59c.06,0-.08.83-.13,2.33a27.79,27.79,0,0,0,.48,6.31A26.92,26.92,0,0,0,350,145a25.87,25.87,0,0,0,3.33,4.4,24.72,24.72,0,0,1,3.91,4.62,7.52,7.52,0,0,1,.91,3,14.89,14.89,0,0,1-.1,3,44.15,44.15,0,0,0-.5,5.54,37.61,37.61,0,0,0,.95,9.34,39.67,39.67,0,0,0,1.91,6C361,182.32,361.38,183.06,361.34,183.08Z" style="fill:#6f4439"></path><path d="M356.87,205.09a24.12,24.12,0,0,1-1.32,2.34,33.86,33.86,0,0,0-4.08,12.15,21.22,21.22,0,0,1-.36,2.67,10.19,10.19,0,0,1,0-2.71,27.07,27.07,0,0,1,1.32-6.4,27.71,27.71,0,0,1,2.8-5.9A9.83,9.83,0,0,1,356.87,205.09Z" style="fill:#6f4439"></path><path d="M416.61,199.24s0,.09-.15.22a2.1,2.1,0,0,1-.59.47,3.72,3.72,0,0,1-2.73.32,5.47,5.47,0,0,1-3.22-2.51,14.77,14.77,0,0,1-1.85-4.63,16.82,16.82,0,0,1-.39-5,7.45,7.45,0,0,1,1.25-3.89,4.37,4.37,0,0,1,2.22-1.63,1.8,1.8,0,0,1,1-.1c0,.05-.35.06-.93.29a4.45,4.45,0,0,0-2,1.66c-1.27,1.84-1.38,5.19-.66,8.52a15,15,0,0,0,1.76,4.48,5.21,5.21,0,0,0,2.9,2.42,3.68,3.68,0,0,0,2.55-.15C416.34,199.49,416.57,199.2,416.61,199.24Z" style="fill:#6f4439"></path><path d="M296.87,192.18s.11,0,.32-.08a3.23,3.23,0,0,1,.95,0A4.78,4.78,0,0,1,301,194a8.55,8.55,0,0,1,1.38,4.93,23,23,0,0,1-.77,6.2,17.31,17.31,0,0,1-2.53,5.73,6.47,6.47,0,0,1-4.25,2.8,4.7,4.7,0,0,1-3.37-.69,3.25,3.25,0,0,1-.7-.65,1,1,0,0,1-.17-.28,9,9,0,0,0,1,.76,4.68,4.68,0,0,0,3.2.5,6.23,6.23,0,0,0,3.92-2.72,17.53,17.53,0,0,0,2.42-5.58,23.72,23.72,0,0,0,.79-6.07,8.29,8.29,0,0,0-1.2-4.71,4.72,4.72,0,0,0-2.62-1.91A7.88,7.88,0,0,0,296.87,192.18Z" style="fill:#6f4439"></path><path d="M365.43,131.07a4,4,0,0,1-.53,1,5.08,5.08,0,0,1-2.33,2.19,2.87,2.87,0,0,1-2.28,0,5.15,5.15,0,0,1-1.9-1.76,37.66,37.66,0,0,1-2.76-5.07,33.74,33.74,0,0,1-1.94-5.44,8.44,8.44,0,0,1,0-4.74,5.09,5.09,0,0,1,1.9-2.57,3.27,3.27,0,0,1,.78-.39c.19-.06.3-.08.3-.06s-.39.16-1,.61a5.2,5.2,0,0,0-1.67,2.53,8.24,8.24,0,0,0,.09,4.5,38,38,0,0,0,2,5.34,39.53,39.53,0,0,0,2.69,5,4.58,4.58,0,0,0,1.69,1.65,2.44,2.44,0,0,0,2,.06,5.14,5.14,0,0,0,2.29-1.95A6.77,6.77,0,0,1,365.43,131.07Z" style="fill:#6f4439"></path><path d="M410.77,220.24a6.7,6.7,0,0,1-4.75-5.19,30,30,0,0,0,2,2.92A27.49,27.49,0,0,0,410.77,220.24Z" style="fill:#6f4439"></path><path d="M377.19,318.45c-12.8,20.9-34.08,33.61-58.58,33.93-.5.48,18.55,16.31,31.67,24.38,13.47,8.29,38.18,20,38.18,20s25.3-3.91,34.36-23,7.35-33.25,7.35-33.25-19.58-4.9-30.12-8.16C389.08,328.91,377.19,318.45,377.19,318.45Z" style="fill:#263238"></path><path d="M384.82,324.26a4,4,0,0,1-.34.62l-1,1.74c-.93,1.5-2.29,3.66-4.06,6.28a86.44,86.44,0,0,1-16.26,18.49c-7.48,6.17-15.78,9.67-22,10.77a35.58,35.58,0,0,1-7.45.68c-.88,0-1.57-.08-2-.1a3.13,3.13,0,0,1-.7-.09,3.83,3.83,0,0,1,.71,0c.46,0,1.14.05,2,0a39.48,39.48,0,0,0,7.38-.84c6.16-1.18,14.35-4.7,21.76-10.82s12.67-13.16,16.29-18.29c1.8-2.58,3.21-4.71,4.18-6.18l1.14-1.68A2.89,2.89,0,0,1,384.82,324.26Z" style="fill:#263238"></path><path d="M402.4,333a3,3,0,0,1-.12.69c-.11.44-.28,1.09-.55,1.91a55.28,55.28,0,0,1-2.71,6.82,77,77,0,0,1-5.38,9.46,81.68,81.68,0,0,1-8.33,10.39l-2.44,2.52-2.5,2.3-1.22,1.12-1.26,1c-.83.68-1.64,1.35-2.44,2a49.16,49.16,0,0,1-9.24,5.74,43.3,43.3,0,0,1-6.85,2.63c-.83.24-1.49.4-1.93.49a2.77,2.77,0,0,1-.69.1,3.43,3.43,0,0,1,.66-.2c.44-.12,1.08-.31,1.9-.58a49.52,49.52,0,0,0,6.75-2.77,51.12,51.12,0,0,0,9.11-5.78l2.41-2,1.25-1,1.21-1.12,2.48-2.29,2.42-2.51a85.11,85.11,0,0,0,8.31-10.3,80.39,80.39,0,0,0,5.44-9.35,60.23,60.23,0,0,0,2.86-6.72c.3-.81.49-1.45.64-1.88A5.61,5.61,0,0,1,402.4,333Z" style="fill:#263238"></path><path d="M406.41,335.46a3.59,3.59,0,0,1-.13.69c-.11.44-.28,1.09-.55,1.91a53.71,53.71,0,0,1-2.71,6.82,76.26,76.26,0,0,1-5.38,9.45,81.05,81.05,0,0,1-8.33,10.4l-2.43,2.52-2.51,2.3-1.22,1.12-1.26,1-2.43,2a49.53,49.53,0,0,1-9.25,5.74,43.3,43.3,0,0,1-6.85,2.63c-.83.24-1.48.4-1.93.49a2.77,2.77,0,0,1-.69.1,4.22,4.22,0,0,1,.66-.2c.44-.12,1.08-.31,1.9-.58a49.52,49.52,0,0,0,6.75-2.77,51.12,51.12,0,0,0,9.11-5.78l2.41-2,1.25-1,1.21-1.12,2.48-2.29,2.43-2.51a86,86,0,0,0,8.3-10.3,82.07,82.07,0,0,0,5.45-9.35,61.77,61.77,0,0,0,2.85-6.72c.3-.81.5-1.45.64-1.88A4,4,0,0,1,406.41,335.46Z" style="fill:#263238"></path><path d="M393.34,330s0,.09-.14.24-.24.39-.46.67a10,10,0,0,1-2.32,2.12,11.16,11.16,0,0,1-4.66,1.73,10.37,10.37,0,0,1-6.47-1.14l.24-.28a13.59,13.59,0,0,1,2.59,6.07,11,11,0,0,1-1.38,7.33,9.51,9.51,0,0,1-6.65,4.69A8.57,8.57,0,0,1,366,348.3l.41-.3a9,9,0,0,1,1.58,3.94,10.44,10.44,0,0,1-1.35,6.84,9.23,9.23,0,0,1-5.24,4.12,10,10,0,0,1-6.31,0,8.52,8.52,0,0,1-2.66-1.47,9.07,9.07,0,0,1-1.91-2.21l.36-.26a7.12,7.12,0,0,1,1.54,5.25,8.45,8.45,0,0,1-2,4.52,7.44,7.44,0,0,1-3.62,2.41,7.35,7.35,0,0,1-3.7,0,12,12,0,0,1-4.56-2.35,12.39,12.39,0,0,1-1-.91,2.19,2.19,0,0,1-.31-.35s.47.43,1.4,1.15a12.32,12.32,0,0,0,4.54,2.2,6.92,6.92,0,0,0,3.55-.06,7.14,7.14,0,0,0,3.43-2.33,8.21,8.21,0,0,0,1.87-4.34,6.72,6.72,0,0,0-1.47-4.91l.36-.26a8.76,8.76,0,0,0,1.82,2.08,8.23,8.23,0,0,0,2.52,1.38,9.5,9.5,0,0,0,6,0,8.71,8.71,0,0,0,5-3.9,9.94,9.94,0,0,0,1.27-6.5A8.44,8.44,0,0,0,366,348.3l.42-.31a8.11,8.11,0,0,0,7.58,2.94,9.08,9.08,0,0,0,6.33-4.44,10.57,10.57,0,0,0,1.35-7,13.2,13.2,0,0,0-2.46-5.9l-.52-.71.77.43a10.07,10.07,0,0,0,6.24,1.18,11,11,0,0,0,4.59-1.62A11.42,11.42,0,0,0,393.34,330Z" style="fill:#263238"></path><path d="M398.63,332.22a1.29,1.29,0,0,1,0,.29,4.58,4.58,0,0,1-.05.83,6.09,6.09,0,0,1-1.24,2.92,8,8,0,0,1-4.23,2.62,14.44,14.44,0,0,1-6.54.1l.24-.24a36.12,36.12,0,0,1,.5,5.19,17.48,17.48,0,0,1-.74,5.73,8.94,8.94,0,0,1-1.47,2.75,9.43,9.43,0,0,1-2.45,2.07,14.34,14.34,0,0,1-6.31,1.93,11.21,11.21,0,0,1-3.37-.29l.31-.35a9.54,9.54,0,0,1,0,6.5,11,11,0,0,1-3.67,4.86,8.46,8.46,0,0,1-5.31,1.68c-1.78,0-3.41-.32-4.92-.41l.2-.18a18.33,18.33,0,0,1-.39,2.89,12.37,12.37,0,0,1-.87,2.47,8.34,8.34,0,0,1-2.68,3.18,8.83,8.83,0,0,1-2.37,1.15,6.5,6.5,0,0,1-.66.17c-.15,0-.23.05-.23,0a11.89,11.89,0,0,0,3.13-1.54,8.32,8.32,0,0,0,2.54-3.13,12.62,12.62,0,0,0,.8-2.41,18,18,0,0,0,.34-2.84V368h.2c1.54.08,3.17.37,4.89.36a8,8,0,0,0,5-1.62,10.69,10.69,0,0,0,3.49-4.65,9.14,9.14,0,0,0,0-6.13l-.17-.47.48.12a10.65,10.65,0,0,0,3.2.27,13.91,13.91,0,0,0,6.07-1.85,9,9,0,0,0,2.33-2,8.43,8.43,0,0,0,1.39-2.59,16.85,16.85,0,0,0,.75-5.57,35.6,35.6,0,0,0-.45-5.12l0-.3.29.06a14.4,14.4,0,0,0,6.38,0,7.89,7.89,0,0,0,4.13-2.45,6.21,6.21,0,0,0,1.3-2.79C398.59,332.61,398.6,332.22,398.63,332.22Z" style="fill:#263238"></path><path d="M380.34,373.07a3.73,3.73,0,0,1,.67.75c.41.5,1,1.26,1.59,2.22a37.28,37.28,0,0,1,4,8.11,36.27,36.27,0,0,1,1.85,8.85,23.66,23.66,0,0,1,.09,2.73,4.07,4.07,0,0,1-.07,1c-.09,0-.12-1.43-.38-3.71a42.58,42.58,0,0,0-2-8.71,43.45,43.45,0,0,0-3.81-8.08C381.11,374.27,380.27,373.12,380.34,373.07Z" style="fill:#263238"></path><path d="M400.31,350.85a5,5,0,0,1,.67.39c.42.28,1.07.65,1.83,1.24a33.68,33.68,0,0,1,5.95,5.56,36.87,36.87,0,0,1,8.15,17.23c.1.62.2,1.24.29,1.86s.12,1.27.19,1.91a5.94,5.94,0,0,1-.12,2,2.19,2.19,0,0,1-1.42,1.55,6.73,6.73,0,0,1-2,.25c-.65,0-1.3.06-1.94.07-1.28,0-2.54,0-3.78-.1a55,55,0,0,1-18.63-4.43,50.82,50.82,0,0,1-7.2-3.8c-.82-.5-1.41-1-1.83-1.24a4.36,4.36,0,0,1-.61-.47,4.14,4.14,0,0,1,.67.38c.43.26,1,.69,1.88,1.15a55.16,55.16,0,0,0,7.23,3.64,56,56,0,0,0,18.52,4.26c1.23.08,2.48.09,3.75.09.63,0,1.27-.05,1.91-.07a6.59,6.59,0,0,0,1.86-.22,1.65,1.65,0,0,0,1.09-1.21,5.25,5.25,0,0,0,.1-1.82l-.18-1.87c-.09-.62-.18-1.23-.28-1.84a36.92,36.92,0,0,0-7.94-17.08,35.34,35.34,0,0,0-5.78-5.64C401.18,351.46,400.28,350.9,400.31,350.85Z" style="fill:#263238"></path><path d="M430.17,340.46a6.34,6.34,0,0,1-.65,1.16,8.26,8.26,0,0,1-.88,1.29,18.14,18.14,0,0,1-1.32,1.6,19.29,19.29,0,0,1-1.83,1.73c-.35.29-.7.6-1.08.89l-1.23.84a24.85,24.85,0,0,1-6,2.81,29.12,29.12,0,0,1-6.49,1.24,27,27,0,0,1-5.39-.19,16.43,16.43,0,0,1-2-.36,12.52,12.52,0,0,1-1.51-.39,7.87,7.87,0,0,1-1.25-.46c0-.11,1.83.52,4.85.85a29.61,29.61,0,0,0,5.31.07,30.5,30.5,0,0,0,6.36-1.25,25.51,25.51,0,0,0,5.88-2.72l1.22-.81c.38-.28.73-.58,1.08-.85a19,19,0,0,0,1.83-1.66,19.28,19.28,0,0,0,1.36-1.52,10.67,10.67,0,0,0,.94-1.22A6.88,6.88,0,0,1,430.17,340.46Z" style="fill:#263238"></path><path d="M396.21,355.71s.16.07.43.24.66.43,1.14.81a30.71,30.71,0,0,1,3.86,3.43A34.32,34.32,0,0,1,410,375l.08.32h-.32l-1,0a44.68,44.68,0,0,1-17.42-3.25,40.44,40.44,0,0,1-4.86-2.34c-.56-.31-1-.59-1.25-.76a2.37,2.37,0,0,1-.42-.3,15.87,15.87,0,0,1,1.76.88,52.54,52.54,0,0,0,4.9,2.18,46.47,46.47,0,0,0,17.28,3.07l1,0-.24.32a35.21,35.21,0,0,0-8.11-14.72,36.27,36.27,0,0,0-3.72-3.53C396.72,356.14,396.19,355.74,396.21,355.71Z" style="fill:#263238"></path><path d="M421.26,338.18s-.16.23-.53.58a15.38,15.38,0,0,1-1.65,1.37,22.18,22.18,0,0,1-13.3,4.31,15.86,15.86,0,0,1-2.15-.14,2.23,2.23,0,0,1-.77-.16c0-.19,4.53.44,9.76-1.27S421.16,338,421.26,338.18Z" style="fill:#263238"></path><path d="M379,392.38a41.14,41.14,0,0,0-1.38-8.06c-1.36-4.32-3.53-7.37-3.36-7.46a8.59,8.59,0,0,1,1.43,2,24.72,24.72,0,0,1,2.43,5.35,22.37,22.37,0,0,1,1,5.78A8.2,8.2,0,0,1,379,392.38Z" style="fill:#263238"></path><path d="M369.66,329.49a8.89,8.89,0,0,1-1.21,2.15,26.37,26.37,0,0,1-8.68,8,8.23,8.23,0,0,1-2.23,1,55.48,55.48,0,0,0,6.67-5A53.77,53.77,0,0,0,369.66,329.49Z" style="fill:#fff"></path><path d="M376.7,341.28a16.91,16.91,0,0,1-4.19,4.19,16.91,16.91,0,0,1,4.19-4.19Z" style="fill:#fff"></path><path d="M383.26,347.05a4,4,0,0,1-1.13,2.32c-.9,1.14-1.94,1.73-2,1.61s.76-.86,1.61-1.93S383.13,347,383.26,347.05Z" style="fill:#fff"></path><path d="M389.27,351.5a4,4,0,0,1-1.19,2.65,4,4,0,0,1-2.43,1.6c-.07-.13,1.05-.76,2-1.93S389.12,351.45,389.27,351.5Z" style="fill:#fff"></path><path d="M395.07,354.13a10.3,10.3,0,0,1-4.46,6.57c-.1-.12,1.25-1.31,2.46-3.13S394.92,354.08,395.07,354.13Z" style="fill:#fff"></path><path d="M397.69,364.1c.11.1-.27.7-.85,1.36s-1.14,1.1-1.25,1,.28-.7.86-1.35S397.59,364,397.69,364.1Z" style="fill:#fff"></path></g><g id="freepik--hand-2--inject-48"><path d="M169,388.15s-9,4.2-8.78,7.88c.2,2.88,4.63,6.46,19.81,2.43a67,67,0,0,0,19.4-8.39l9.26-1.45,13.61,5.12,73.56-19.89s-31-16.79-60.23-12.45S169,388.15,169,388.15Z" style="fill:#ffbf9d"></path><path d="M225.87,389.83c-10.48,3.21-16,14-19.93,22.49,0,0-11.86,2.37-15.53,6l-20.7-6.91s-13.61-21.39-33-19.89c-3.45.27-7.59,1.94-7.75,5.4a7.43,7.43,0,0,0,0,1.05c.45,3.55,9.48,2.58,12.86,7.56s18.63,24.15,27.72,27.92l4.66,2s-15.42-4.92-19.85-1.15A80.28,80.28,0,0,0,129,426.62c-14.37-1.78-24.13,6.87-24.13,10.86s10.87,1.78,19.29,4,23.5,8.81,23.5,8.81-18.17,1.84-21.5,10.49,4.68,5.09,12.64,4.43c12.56-1,28.17,1.74,28.17,1.74s-17.75,4.47-18.64,12.68c0,0-1.55,4.65,8.43,3.32s8.94-1.92,20.1-3.73c12-1.95,34.11-.71,34.11-.71s11.67.45,26.52-10.41,28.27-17.34,42.12-21.52c25-7.53,46.35,5.57,46.35,5.57l14-47L317.22,386l-21.39-12.19S243.06,376.24,225.87,389.83Z" style="fill:#ffbf9d"></path><path d="M211,436.29a9,9,0,0,1-1.4.53c-.46.17-1,.35-1.69.53s-1.41.41-2.26.59a53.57,53.57,0,0,1-6,1,52.93,52.93,0,0,1-14.87-.43,52.73,52.73,0,0,1-5.93-1.38c-.84-.23-1.58-.5-2.23-.72s-1.2-.43-1.65-.62a8.85,8.85,0,0,1-1.37-.62,8.52,8.52,0,0,1,1.44.43c.46.16,1,.35,1.67.53s1.4.44,2.24.64a57.78,57.78,0,0,0,5.9,1.26,62,62,0,0,0,7.36.7,64.3,64.3,0,0,0,7.39-.27,58.76,58.76,0,0,0,6-.91c.85-.16,1.6-.36,2.27-.51s1.24-.31,1.7-.44A7.82,7.82,0,0,1,211,436.29Z" style="fill:#ff9a6c"></path><path d="M212.76,446.79a2.94,2.94,0,0,1-.61.33l-1.8.88c-.78.38-1.75.82-2.9,1.27s-2.44,1-3.92,1.5l-2.32.79c-.8.27-1.66.49-2.54.75-1.75.54-3.66.95-5.67,1.41a90.74,90.74,0,0,1-13.27,1.72,89,89,0,0,1-13.38-.44c-2-.29-4-.51-5.78-.91-.9-.18-1.77-.32-2.6-.52L155.6,453c-1.51-.35-2.84-.82-4-1.19-.59-.19-1.14-.35-1.64-.53l-1.35-.53-1.86-.74a2.81,2.81,0,0,1-.63-.29,3.36,3.36,0,0,1,.67.19l1.89.65L150,451l1.64.49c1.19.34,2.52.78,4,1.11l2.36.56c.82.19,1.7.32,2.59.5,1.78.37,3.72.58,5.75.85a92.32,92.32,0,0,0,13.3.4,94.78,94.78,0,0,0,13.21-1.67c2-.45,3.9-.84,5.65-1.36.87-.25,1.73-.45,2.53-.71l2.32-.76c1.48-.45,2.77-1,3.93-1.42s2.13-.84,2.93-1.19l1.84-.78A3.68,3.68,0,0,1,212.76,446.79Z" style="fill:#ff9a6c"></path><path d="M220.87,461.61a3.07,3.07,0,0,1-.43.4,13.46,13.46,0,0,1-1.34,1,21.52,21.52,0,0,1-5.6,2.42c-5,1.39-12.06,2.28-19.9,2.64a166.33,166.33,0,0,1-20.07-.37c-2.56-.21-4.63-.45-6.05-.64l-1.64-.24a2,2,0,0,1-.56-.12,2.24,2.24,0,0,1,.57,0l1.65.14c1.43.13,3.5.31,6.06.47a191.87,191.87,0,0,0,20,.22A103.23,103.23,0,0,0,213.4,465,22.46,22.46,0,0,0,219,462.8C220.23,462.08,220.84,461.57,220.87,461.61Z" style="fill:#ff9a6c"></path><path d="M241,384.69a5.78,5.78,0,0,1-1.29.32c-.85.18-2.06.42-3.56.76a47.7,47.7,0,0,0-11.27,3.81,34.38,34.38,0,0,0-9.49,7.09c-1,1.14-1.85,2.06-2.37,2.74a7.26,7.26,0,0,1-.89,1,6.54,6.54,0,0,1,.72-1.12,34.2,34.2,0,0,1,2.27-2.86,32.18,32.18,0,0,1,9.52-7.32,43.59,43.59,0,0,1,11.44-3.7c1.51-.29,2.74-.48,3.59-.6A7.25,7.25,0,0,1,241,384.69Z" style="fill:#ff9a6c"></path><g style="opacity:0.2"><path d="M110.74,440.19c-.38-4.05,3.92-4.94,6.52-5.16a18,18,0,0,1,7.64,1.24,11.36,11.36,0,0,1,4.56,2.77c1.21,1.33,2,2.87,1.46,4.58" style="fill:#fff"></path></g><g style="opacity:0.2"><path d="M146.88,459.54a11.19,11.19,0,0,0-5.52-.16,25.26,25.26,0,0,0-7.36,1.79,8.49,8.49,0,0,0-4.86,5.5l8.57-1.35c.52-.05,1.66-.16,1.9-.17a93.73,93.73,0,0,1,9.49-.09C149.66,463.28,148.61,460.21,146.88,459.54Z" style="fill:#fff"></path></g><g style="opacity:0.2"><path d="M165.45,476.29a12.86,12.86,0,0,0-5.17-.34,13.82,13.82,0,0,0-5.4,1.49c-1.64.91-4.39,2.07-3.44,5.74a26.81,26.81,0,0,0,5.73-.3,93.65,93.65,0,0,0,12.24-2.31C169.26,478.7,167.11,476.82,165.45,476.29Z" style="fill:#fff"></path></g><g style="opacity:0.2"><path d="M148.84,407.82a8.31,8.31,0,0,0-2-3.28c-1.88-2.32-3.83-4.69-6.4-6.22s-7.68-2.25-8.19,2.21l3.33,1L137,402a11.58,11.58,0,0,1,5.56,4.29l3.79,5.5C147.44,411.12,149.23,409.66,148.84,407.82Z" style="fill:#fff"></path></g><g style="opacity:0.2"><path d="M162.44,392.28c1,1.83,2.26,2.08,4.34,2.27a16.65,16.65,0,0,0,6.16-.91,17.13,17.13,0,0,0,4.6-1.88,6.84,6.84,0,0,0,3-3.8c.45-1.6-1.06-4.86-3.24-4.51" style="fill:#fff"></path></g><path d="M130.92,443.62s.08-.38.06-1.07a4.63,4.63,0,0,0-1-2.63,8.92,8.92,0,0,0-3.32-2.65,22.84,22.84,0,0,0-5-1.68,15.49,15.49,0,0,0-5.26-.22,8.68,8.68,0,0,0-4,1.39,3.61,3.61,0,0,0-1.47,2.36c-.12.67-.07,1.07-.13,1.07s0-.1-.06-.28a3.05,3.05,0,0,1,0-.82,3.68,3.68,0,0,1,1.44-2.62,8.68,8.68,0,0,1,4.16-1.57,15.26,15.26,0,0,1,5.44.18,21.49,21.49,0,0,1,5.13,1.76,8.9,8.9,0,0,1,3.41,2.87,4.68,4.68,0,0,1,.94,2.85,3.08,3.08,0,0,1-.15.81C131,443.54,130.93,443.63,130.92,443.62Z" style="fill:#ff9a6c"></path><path d="M138,440.19a9.64,9.64,0,0,1,0,3.19,10.13,10.13,0,0,1-.51,3.15,10,10,0,0,1,0-3.19A10.13,10.13,0,0,1,138,440.19Z" style="fill:#ff9a6c"></path><path d="M149.22,464.85c-.05,0,.07-.38,0-1.05a5.88,5.88,0,0,0-.88-2.65,3.78,3.78,0,0,0-1.34-1.29,5.7,5.7,0,0,0-2.14-.48,27.9,27.9,0,0,0-5.17.5,22.57,22.57,0,0,0-5,1.25,10.64,10.64,0,0,0-3.52,2.26,8.78,8.78,0,0,0-2,3.28,2.49,2.49,0,0,1,.22-1.05,7.18,7.18,0,0,1,1.56-2.48,10.31,10.31,0,0,1,3.59-2.45,21.85,21.85,0,0,1,5.14-1.33,26.57,26.57,0,0,1,5.28-.46,6.28,6.28,0,0,1,2.31.57,4,4,0,0,1,1.45,1.49,5.42,5.42,0,0,1,.77,2.84A2,2,0,0,1,149.22,464.85Z" style="fill:#ff9a6c"></path><path d="M157.3,459.23a3.82,3.82,0,0,1,.33,2.25,3.93,3.93,0,0,1-.52,2.21,7.09,7.09,0,0,1,0-2.24A7.74,7.74,0,0,1,157.3,459.23Z" style="fill:#ff9a6c"></path><path d="M169.26,479.6a6.71,6.71,0,0,0-2.31-2.41,8,8,0,0,0-3.44-1.05,19.5,19.5,0,0,0-4.5.24,12.53,12.53,0,0,0-4.24,1.39,6.88,6.88,0,0,0-2.85,2.18,3.87,3.87,0,0,0-.54,2.31,5.2,5.2,0,0,1,.06.92,2.44,2.44,0,0,1-.26-.9,3.77,3.77,0,0,1,.43-2.52,6.94,6.94,0,0,1,2.93-2.41,12.05,12.05,0,0,1,4.39-1.48,18.29,18.29,0,0,1,4.62-.21,7.91,7.91,0,0,1,3.6,1.22,5.58,5.58,0,0,1,1.78,1.85A2.19,2.19,0,0,1,169.26,479.6Z" style="fill:#ff9a6c"></path><path d="M132.27,400.53a.86.86,0,0,1,0-.28,2.75,2.75,0,0,1,.15-.81,3.33,3.33,0,0,1,2.06-2.19,7,7,0,0,1,4.49.14,12.47,12.47,0,0,1,4.58,3,41.48,41.48,0,0,1,3.59,4.11c1,1.26,2,2.63,1.93,4a3.17,3.17,0,0,1-.65,1.64,5.25,5.25,0,0,1-.92.95,3,3,0,0,1-.94.58,9.59,9.59,0,0,1,.81-.74,3.78,3.78,0,0,0,1.33-2.45c.06-1.22-.85-2.47-1.93-3.72a47.19,47.19,0,0,0-3.58-4,12.48,12.48,0,0,0-4.38-2.94,6.72,6.72,0,0,0-4.2-.25,3.2,3.2,0,0,0-2,1.91A8.69,8.69,0,0,1,132.27,400.53Z" style="fill:#ff9a6c"></path><path d="M177.34,383.45a.8.8,0,0,1,.28-.07,2.09,2.09,0,0,1,.83.1,3.81,3.81,0,0,1,2.05,2.2,4.2,4.2,0,0,1,.34,2.11,5.58,5.58,0,0,1-1,2.22,9.64,9.64,0,0,1-4.48,3.12,33.84,33.84,0,0,1-5.24,1.46,12.36,12.36,0,0,1-4.46,0,4,4,0,0,1-2.66-1.37,2.48,2.48,0,0,1-.54-1s.22.32.69.83a3.89,3.89,0,0,0,2.57,1.13,12.45,12.45,0,0,0,4.31-.12,36.52,36.52,0,0,0,5.14-1.47,9.48,9.48,0,0,0,4.29-2.93,5.21,5.21,0,0,0,1-2,3.86,3.86,0,0,0-.25-1.9,3.7,3.7,0,0,0-1.79-2.15A4.42,4.42,0,0,0,177.34,383.45Z" style="fill:#ff9a6c"></path><path d="M380.24,412.51l-63.87-26.73c9.3,21.73-10.11,51.17-26.95,58.8,32.28,7.33,39.46,14.83,58.28,40C378.5,469.39,389.9,442.18,380.24,412.51Z" style="fill:#263238"></path><path d="M326.09,389.85a2.9,2.9,0,0,1,.27.64c.08.23.18.49.29.79l.27,1.12a33.3,33.3,0,0,1,.71,7.27,62,62,0,0,1-1,10.79,58.72,58.72,0,0,1-3.72,12.74,55.57,55.57,0,0,1-6.85,11.37,49.16,49.16,0,0,1-3.89,4.31,43,43,0,0,1-3.85,3.29,40.19,40.19,0,0,1-6.19,3.88c-.76.4-1.38.66-1.79.85a4.37,4.37,0,0,1-.64.26,2.61,2.61,0,0,1,.59-.35c.4-.22,1-.51,1.75-.94a46.45,46.45,0,0,0,6.06-4,44.66,44.66,0,0,0,3.77-3.31,49.88,49.88,0,0,0,3.81-4.29A56,56,0,0,0,322.42,423a59.8,59.8,0,0,0,3.73-12.62,64.06,64.06,0,0,0,1.11-10.7,36.58,36.58,0,0,0-.53-7.23c-.09-.41-.16-.79-.23-1.12l-.24-.8A3.8,3.8,0,0,1,326.09,389.85Z" style="fill:#263238"></path><path d="M351,400.26a2.54,2.54,0,0,1,.07.67c0,.44,0,1.08,0,1.92a58.91,58.91,0,0,1-.73,7A79.63,79.63,0,0,1,348,420a103,103,0,0,1-4.47,12l-1.42,3c-.47,1-1,2-1.49,2.91-1,1.91-2,3.7-3,5.37a89,89,0,0,1-6.08,8.49c-1.87,2.32-3.49,4.1-4.63,5.3-.57.61-1,1.06-1.34,1.37a4,4,0,0,1-.5.44s.13-.19.42-.52l1.27-1.42c1.1-1.25,2.67-3.06,4.49-5.4a96.51,96.51,0,0,0,6-8.51c1-1.67,2.05-3.45,3-5.36.48-1,1-1.9,1.47-2.89l1.42-3a107.21,107.21,0,0,0,4.48-11.9,83.92,83.92,0,0,0,2.44-10.1,64.73,64.73,0,0,0,.88-7c.07-.82.09-1.46.11-1.9S351,400.26,351,400.26Z" style="fill:#263238"></path><path d="M356.28,402.49a2.68,2.68,0,0,1,.08.68c0,.45.05,1.12.05,2a60.8,60.8,0,0,1-.57,7.25,86.43,86.43,0,0,1-6.68,23l-.7,1.6c-.26.52-.51,1-.76,1.55-.52,1-1,2.05-1.51,3a53.3,53.3,0,0,1-3.38,5.42A86.25,86.25,0,0,1,336,455.3c-2.08,2.25-3.87,4-5.13,5.14-.63.59-1.13,1-1.47,1.32s-.53.44-.55.42a5.22,5.22,0,0,1,.48-.5l1.4-1.38c1.22-1.21,3-3,5-5.25a92.81,92.81,0,0,0,6.71-8.37,56.8,56.8,0,0,0,3.32-5.39c.53-1,1-2,1.49-3l.75-1.55.7-1.59a90.23,90.23,0,0,0,6.79-22.82,67,67,0,0,0,.73-7.2c0-.85.05-1.51.06-2A3.51,3.51,0,0,1,356.28,402.49Z" style="fill:#263238"></path><path d="M339.46,395.45a.8.8,0,0,1,0,.25c0,.21-.08.45-.13.76a8.19,8.19,0,0,1-1.23,2.67,7.9,7.9,0,0,1-3.75,2.75,13.72,13.72,0,0,1-6.13.61l.11-.35a26.72,26.72,0,0,1,5.68,4.19,10.45,10.45,0,0,1,2.28,3.24,9.52,9.52,0,0,1,.61,4.15,10.27,10.27,0,0,1-4.05,7.79,9.07,9.07,0,0,1-9.26.85l-.34-.17.27-.45a10.33,10.33,0,0,1,4.69,7.61,9.78,9.78,0,0,1-2.53,8,10.78,10.78,0,0,1-7,3.1,10.15,10.15,0,0,1-6.54-1.82l.2-.33a6.89,6.89,0,0,1,2.56,2.46,10.28,10.28,0,0,1,1.22,2.9,9.05,9.05,0,0,1-.19,5,7.08,7.08,0,0,1-1.74,2.64l-.66.5c-.14.12-.22.17-.23.16a1,1,0,0,1,.2-.2l.61-.54a7.13,7.13,0,0,0,1.61-2.63,8.8,8.8,0,0,0,.11-4.85,10.14,10.14,0,0,0-1.22-2.79,6.47,6.47,0,0,0-2.45-2.3l.21-.33a9.76,9.76,0,0,0,6.28,1.69,10.31,10.31,0,0,0,6.71-3,9.26,9.26,0,0,0,2.37-7.58,9.81,9.81,0,0,0-4.45-7.22l.26-.45.32.16a8.57,8.57,0,0,0,8.72-.8,9.82,9.82,0,0,0,3.87-7.4,9.3,9.3,0,0,0-.55-4,10.35,10.35,0,0,0-2.17-3.11,27,27,0,0,0-5.56-4.17l-.75-.44.87.09a13.31,13.31,0,0,0,6-.51A7.74,7.74,0,0,0,337.9,399,9.71,9.71,0,0,0,339.46,395.45Z" style="fill:#263238"></path><path d="M340.51,449.66a7,7,0,0,1,.92,1.11,28,28,0,0,1,2,3.37,48,48,0,0,1,4.21,12.26,46.64,46.64,0,0,1,.95,12.93c0,.83-.17,1.58-.25,2.23a12.61,12.61,0,0,1-.31,1.67,7.61,7.61,0,0,1-.37,1.39c-.11,0,.39-2,.56-5.31a50.75,50.75,0,0,0-1.09-12.8,52.25,52.25,0,0,0-4-12.21,38.1,38.1,0,0,0-1.88-3.42A7.3,7.3,0,0,1,340.51,449.66Z" style="fill:#263238"></path><path d="M354.34,419.29a4.85,4.85,0,0,1,.79.3,22.3,22.3,0,0,1,2.18,1,38.9,38.9,0,0,1,7.32,5,56.56,56.56,0,0,1,8.9,9.72,51.44,51.44,0,0,1,4,6.69l.85,1.87c.26.64.49,1.3.74,1.95s.4,1.35.61,2a7.25,7.25,0,0,1,.39,2.16,2.36,2.36,0,0,1-1,2.06,5.67,5.67,0,0,1-2.07.71l-2,.43-2,.33a58.92,58.92,0,0,1-7.78.59,57.31,57.31,0,0,1-13.09-1.43,50.94,50.94,0,0,1-8.47-2.69c-1-.38-1.71-.75-2.21-1a5.15,5.15,0,0,1-.75-.39,7.3,7.3,0,0,1,.79.29c.52.2,1.26.54,2.24.89a55.89,55.89,0,0,0,8.48,2.52,58.3,58.3,0,0,0,13,1.31,59.89,59.89,0,0,0,7.71-.61l2-.34,2-.42a5.34,5.34,0,0,0,1.89-.63,1.83,1.83,0,0,0,.74-1.64,7.31,7.31,0,0,0-.37-2c-.21-.66-.34-1.35-.6-2s-.47-1.29-.73-1.92-.55-1.24-.83-1.85a52.58,52.58,0,0,0-3.93-6.64,58.53,58.53,0,0,0-8.75-9.71,41.44,41.44,0,0,0-7.18-5.14,23.76,23.76,0,0,0-2.13-1.12A5.91,5.91,0,0,1,354.34,419.29Z" style="fill:#263238"></path><path d="M352,427.38a1.82,1.82,0,0,1,.52.2c.33.15.82.35,1.42.68a39.34,39.34,0,0,1,4.95,3,44.92,44.92,0,0,1,6.54,5.61,35.74,35.74,0,0,1,3.31,3.89,26.92,26.92,0,0,1,2.83,4.69l.09.17.14.29-.33.07a46.2,46.2,0,0,1-18.94,0,41.73,41.73,0,0,1-5.55-1.57c-.64-.21-1.12-.43-1.45-.56a2.31,2.31,0,0,1-.5-.24s.73.21,2,.61a49.7,49.7,0,0,0,5.55,1.4,47.75,47.75,0,0,0,18.77-.16l-.19.37-.08-.17a26.74,26.74,0,0,0-2.78-4.61,35.83,35.83,0,0,0-3.23-3.86,48.81,48.81,0,0,0-6.41-5.64,47.86,47.86,0,0,0-4.83-3.15C352.67,427.76,352,427.42,352,427.38Z" style="fill:#263238"></path><path d="M340,474.5a23.6,23.6,0,0,1-.25-2.88,53.38,53.38,0,0,0-.94-6.86,32.86,32.86,0,0,0-2-6.58c-.72-1.62-1.33-2.53-1.26-2.58s.21.19.5.59a13.08,13.08,0,0,1,1.09,1.83,26.55,26.55,0,0,1,2.23,6.64,38.91,38.91,0,0,1,.8,6.94A12.76,12.76,0,0,1,340,474.5Z" style="fill:#263238"></path><path d="M345.87,398.59a2.41,2.41,0,0,1,.11.62,6.38,6.38,0,0,1-.12,1.79,7.29,7.29,0,0,1-1.15,2.62,6.85,6.85,0,0,1-3,2.4l.09-.26a14.62,14.62,0,0,1-6,20.94l.14-.3c.11.49.22,1,.31,1.56a16.8,16.8,0,0,1-12.39,18.8l.14-.19a13.28,13.28,0,0,1-1.88,7.39,12.19,12.19,0,0,1-1.22,1.69,3.3,3.3,0,0,1-.52.52,22.28,22.28,0,0,0,1.56-2.32,13.34,13.34,0,0,0,1.69-7.26v-.15l.15,0a16.78,16.78,0,0,0,8.8-5.95A16.54,16.54,0,0,0,335.74,428c-.08-.52-.18-1-.3-1.5l-.05-.21.19-.09a14.45,14.45,0,0,0,7.77-10.11A14.63,14.63,0,0,0,341.51,406l-.11-.18.19-.08a6.47,6.47,0,0,0,2.89-2.23,7,7,0,0,0,1.19-2.5A8.46,8.46,0,0,0,345.87,398.59Z" style="fill:#263238"></path><path d="M380.49,414.74a4.26,4.26,0,0,1-.71.84,16.28,16.28,0,0,1-6.24,4,34.7,34.7,0,0,1-5.26,1.37,24.22,24.22,0,0,1-9.84-.32,21.9,21.9,0,0,1-2.85-.9,3.85,3.85,0,0,1-1-.48c0-.09,1.47.52,3.91,1a26.11,26.11,0,0,0,9.67.17,36.69,36.69,0,0,0,5.19-1.32,18.05,18.05,0,0,0,3.91-1.88C379.37,415.84,380.42,414.66,380.49,414.74Z" style="fill:#263238"></path><path d="M372.26,408.91a7.2,7.2,0,0,1-2,1.63,16.2,16.2,0,0,1-11.91,2.21,7.26,7.26,0,0,1-2.41-.81c0-.09.95.22,2.48.45a18,18,0,0,0,11.65-2.17C371.45,409.46,372.2,408.84,372.26,408.91Z" style="fill:#263238"></path><path d="M320.23,405.33A19.24,19.24,0,0,1,317,416.48c-.14-.07,1.09-2.39,2-5.47S320.07,405.32,320.23,405.33Z" style="fill:#fff"></path><path d="M328.37,411a6.76,6.76,0,0,1-.23,3.11,6.93,6.93,0,0,1-1.16,2.9,15.2,15.2,0,0,1,.65-3A16.21,16.21,0,0,1,328.37,411Z" style="fill:#fff"></path><path d="M339.65,412.76a5,5,0,0,1-.2,3.26,4.91,4.91,0,0,1-1.79,2.73c-.12-.1.76-1.24,1.3-2.89S339.49,412.76,339.65,412.76Z" style="fill:#fff"></path><path d="M347.36,415.9a5.65,5.65,0,0,1-1.83,5.15c-.12-.1.6-1.1,1.09-2.51S347.2,415.9,347.36,415.9Z" style="fill:#fff"></path><path d="M351.79,418.32a4.83,4.83,0,0,1-.39,2.49c-.44,1.33-1,2.29-1.18,2.22a27.89,27.89,0,0,1,1.57-4.71Z" style="fill:#fff"></path><path d="M358.07,424c.13.07,0,.61-.34,1.2s-.67,1-.8.95,0-.61.34-1.2S358,424,358.07,424Z" style="fill:#fff"></path></g><g id="freepik--hand-1--inject-48"><path d="M235.63,186.88c3.37,21.79,24.45,28.63,41.93,35.47A42.47,42.47,0,0,0,264,195.62c-7.56-6.87-17.43-10.7-28.39-8.74" style="fill:#455a64"></path><path d="M272.48,121.64a2.8,2.8,0,0,1,.12.36c.08.26.18.62.31,1.07s.31,1.06.5,1.74l.32,1.12c.1.4.16.84.25,1.3q.24,1.38.54,3.06c.14,1.12.21,2.36.33,3.68,0,.33.06.67.07,1s0,.69,0,1.05c0,.7,0,1.44,0,2.19a16.72,16.72,0,0,1-.16,2.31c-.08.79-.16,1.61-.25,2.44A53.54,53.54,0,0,1,266,164.68a59.36,59.36,0,0,1-9,10.52,51,51,0,0,1-12.33,8.29,122.22,122.22,0,0,1-13.78,5.56c-4.53,1.59-8.91,3.06-13,4.67A56.91,56.91,0,0,0,198.25,206a35.29,35.29,0,0,0-5.5,7l-.9,1.68c-.3.53-.48,1.1-.71,1.61a20.69,20.69,0,0,0-1,2.92,21.91,21.91,0,0,0-.75,4.2c0,.46-.08.83-.1,1.1a2.58,2.58,0,0,1,0,.38,1.83,1.83,0,0,1,0-.38c0-.27,0-.64,0-1.11a20.82,20.82,0,0,1,.65-4.25,22.43,22.43,0,0,1,1-2.95c.23-.52.4-1.1.7-1.64l.88-1.71a35.28,35.28,0,0,1,5.5-7.13,56.71,56.71,0,0,1,19.73-12.43c4.1-1.64,8.48-3.12,13-4.71A122.79,122.79,0,0,0,244.44,183a50.9,50.9,0,0,0,12.21-8.2,59.19,59.19,0,0,0,9-10.41,53.58,53.58,0,0,0,8.51-21.5c.09-.82.18-1.62.26-2.41a18.24,18.24,0,0,0,.18-2.3c0-.74,0-1.47,0-2.17,0-.36,0-.7,0-1s-.05-.68-.06-1c-.11-1.31-.16-2.54-.28-3.66s-.35-2.14-.5-3.06c-.08-.45-.13-.89-.23-1.29l-.29-1.12c-.17-.69-.32-1.27-.45-1.75s-.2-.82-.26-1.09A1.48,1.48,0,0,1,272.48,121.64Z" style="fill:#455a64"></path><path d="M254.47,177.63c-5.87-2.54-9.12-9.17-9.46-15.55s1.7-12.62,3.82-18.65c8.47,8.64,12.7,21.47,5.64,34.2" style="fill:#455a64"></path><path d="M276.2,112.07l3.06,3.05c8.85,3.71,16.15.44,23.58-5.64s10.25-21.43,9.51-26.1C302.28,85,281.46,106,276.2,112.07Z" style="fill:#263238"></path><path d="M214.28,125.85c-.47.24-.93.7-.86,1.16a1.15,1.15,0,0,0,.51.68,32.12,32.12,0,0,0,22,6.44c8.12-.57,16.05-4.71,22.79-15.61C244.64,118,227.71,118.85,214.28,125.85Z" style="fill:#263238"></path><path d="M200.16,84a37.12,37.12,0,0,0,10.48,28.11c7.23,7.33,25,11.77,33.58,7.14L215.67,82A45.51,45.51,0,0,0,200.16,84Z" style="fill:#263238"></path><path d="M232.91,58.92c1.49-4.76,2.15-8.25,4.63-12.21a1.83,1.83,0,0,1,2.29-.69c3.57,1.55,7.88,3.37,11.22,4.83l4.13,2.49-5,14.48L239.34,69.9l-6-3.52Z" style="fill:#263238"></path><g style="opacity:0.5"><path d="M232.91,58.92c1.49-4.76,2.15-8.25,4.63-12.21a1.83,1.83,0,0,1,2.29-.69c3.57,1.55,7.88,3.37,11.22,4.83l4.13,2.49-5,14.48L239.34,69.9l-6-3.52Z"></path></g><path d="M273,111.53,253.23,119c-4.16,4.25-4.25,13.08-1.2,17s7.76,6.12,12.38,7.91,9.45,3.36,13.35,6.43c1.07-5.14,4.12-9.61,6.68-14.2s4.7-9.81,3.74-15C287.25,116.17,280.38,110.73,273,111.53Z" style="fill:#263238"></path><path d="M273,111.53a1.08,1.08,0,0,1,.25,0l.75-.07a13.93,13.93,0,0,1,2.9.16,15.67,15.67,0,0,1,4.39,1.45,15.31,15.31,0,0,1,4.85,3.79,10.23,10.23,0,0,1,1.85,3.11,11.72,11.72,0,0,1,.58,3.91,21.68,21.68,0,0,1-2,8.45,89.35,89.35,0,0,1-4.58,8.53,33.63,33.63,0,0,0-4,9.54l-.09.41-.32-.26a32.67,32.67,0,0,0-7.91-4.31c-3.43-1.39-6.92-2.53-10.1-4.13a21.12,21.12,0,0,1-8-6.38,11.11,11.11,0,0,1-1.67-4.58,16.61,16.61,0,0,1-.08-4.61,13.22,13.22,0,0,1,3.29-7.65l0,0h0l14.52-5.38,4-1.44,1-.36a2.41,2.41,0,0,1,.35-.1,1.68,1.68,0,0,1-.34.16l-1,.42-3.94,1.54-14.44,5.53.07-.05a12.87,12.87,0,0,0-3.13,7.42,16.54,16.54,0,0,0,.1,4.49,10.82,10.82,0,0,0,1.61,4.38,20.69,20.69,0,0,0,7.86,6.19c3.15,1.58,6.62,2.71,10.08,4.11a32.75,32.75,0,0,1,8,4.39l-.42.15a34.32,34.32,0,0,1,4.09-9.69,86.78,86.78,0,0,0,4.59-8.46,21.41,21.41,0,0,0,2-8.27,11.6,11.6,0,0,0-.53-3.78,9.91,9.91,0,0,0-1.77-3,14.83,14.83,0,0,0-4.7-3.76,16.14,16.14,0,0,0-4.3-1.51A20,20,0,0,0,273,111.53Z" style="fill:#263238"></path><path d="M239.94,63.16a77.15,77.15,0,0,0-13.16-6.37c-1.32-.49-3-.87-4,.14a3.53,3.53,0,0,0-.77,2.13,29.37,29.37,0,0,0,.4,9.21l11.44,14.17,9-9.38Z" style="fill:#263238"></path><path d="M266.16,50.43a22.07,22.07,0,0,0-7.27-6.35,1.33,1.33,0,0,0-2.09.38,33.45,33.45,0,0,0-6.43,15.91l5.72,9.89,14.25-6Z" style="fill:#263238"></path><g style="opacity:0.30000000000000004"><path d="M239.94,63.16a77.15,77.15,0,0,0-13.16-6.37c-1.32-.49-3-.87-4,.14a3.53,3.53,0,0,0-.77,2.13,29.37,29.37,0,0,0,.4,9.21l11.44,14.17,9-9.38Z"></path></g><g style="opacity:0.30000000000000004"><path d="M266.16,50.43a22.07,22.07,0,0,0-7.27-6.35,1.33,1.33,0,0,0-2.09.38,33.45,33.45,0,0,0-6.43,15.91l5.72,9.89,14.25-6Z"></path></g><g style="opacity:0.30000000000000004"><path d="M303.35,87.79a29.39,29.39,0,0,1-6.6,12.09c-2.5,3-7.8,5.82-8.41,6.41-2.64,2.5-6.06,6.4-10.62,7.43l8.52-8.83,14.39-15.32Z"></path></g><path d="M267.72,42.2c-4,7.4-7.68,19-6.75,27.37l6.41,46a21.48,21.48,0,0,0,19.54-9.48c4.19-6.43,5.11-15.34,3.9-22.91s-4.54-14.68-8.58-21.21A205.22,205.22,0,0,0,267.72,42.2Z" style="fill:#263238"></path><path d="M287.46,105.38,288,105c9.1-5.73,14.66-16.37,15.17-27.13.53-11-3.85-21.91-11-30.3a50,50,0,0,0-12.76,12.95l1.14,20.68Z" style="fill:#263238"></path><g style="opacity:0.30000000000000004"><path d="M238,117.27a34.18,34.18,0,0,1-19.61-11.77c-4.93-6-6.76-15.27-4.7-23.5,1.29-.12-.78-.15,0,0l21.24,19.8Z"></path></g><path d="M216.61,64.84a2,2,0,0,0-2.76,1.82c0,6.93-.72,14.25.39,21.09a40,40,0,0,0,10.37,21.66c7.4,8.29,28,13.85,39.49,8.16L234.64,77.06A59.52,59.52,0,0,0,216.61,64.84Z" style="fill:#263238"></path><g style="opacity:0.30000000000000004"><path d="M261.41,118.52c-10.29-.44-19.94-6.59-25.51-15.24a26.35,26.35,0,0,1-1.51-26.59l2.05,1.61Z"></path></g><g style="opacity:0.30000000000000004"><path d="M262.53,67.65a39.74,39.74,0,0,1,7.62,45.65L267.72,117c7.83-6.25,12.53-16.41,11.66-26.38S271.86,71.27,262.53,67.65Z"></path></g><path d="M269.77,74c-5.86-8-15.51-12.06-24.68-15.77a3.52,3.52,0,0,0-2.34-.37A3.44,3.44,0,0,0,241,59.66c-4.27,7.68-7.12,16.28-7.22,25.07s2.71,17.75,8.59,24.28a28.08,28.08,0,0,0,24.3,8.68h0a26.84,26.84,0,0,0,9-13.91,36.7,36.7,0,0,0,0-15.51A35.57,35.57,0,0,0,269.77,74Z" style="fill:#263238"></path><path d="M269.77,74a19.22,19.22,0,0,1,2,2.93,35.86,35.86,0,0,1,3.58,9.19,40.56,40.56,0,0,1,1.05,15.13,24.87,24.87,0,0,1-1,4.42,25.26,25.26,0,0,1-2,4.37,26.12,26.12,0,0,1-6.56,7.85l0,0h-.06A28.46,28.46,0,0,1,244,111a29.32,29.32,0,0,1-5.49-6.85,36.84,36.84,0,0,1-4.8-15.61,45,45,0,0,1,1.47-15.16,60.12,60.12,0,0,1,5.15-12.81,7.1,7.1,0,0,1,1.9-2.64,2.24,2.24,0,0,1,1.63-.28,7.34,7.34,0,0,1,1.48.49c1.85.76,3.63,1.5,5.31,2.24,6.76,2.89,11.86,6.12,14.89,8.91.78.67,1.4,1.35,2,1.91s1,1.09,1.31,1.51l.74,1a2.89,2.89,0,0,1,.24.35,2.06,2.06,0,0,1-.28-.31l-.78-1c-.35-.41-.81-.89-1.34-1.48s-1.2-1.2-2-1.86c-3.06-2.73-8.15-5.88-14.9-8.73q-2.53-1.08-5.32-2.2c-.9-.37-1.93-.77-2.74-.23a6.82,6.82,0,0,0-1.74,2.5,59.12,59.12,0,0,0-5.06,12.72,44.42,44.42,0,0,0-1.43,15,36.44,36.44,0,0,0,4.74,15.38,28.91,28.91,0,0,0,5.39,6.74,28,28,0,0,0,22.32,6.88l-.11,0a25.84,25.84,0,0,0,6.47-7.69,25.19,25.19,0,0,0,1.94-4.29,23.67,23.67,0,0,0,1-4.34,40.37,40.37,0,0,0-.93-15A36.62,36.62,0,0,0,271.59,77c-.54-1-1-1.74-1.33-2.24l-.38-.56A.79.79,0,0,1,269.77,74Z" style="fill:#263238"></path><path d="M234.39,76.69a27.51,27.51,0,0,1-2.44-2,71.14,71.14,0,0,0-6.07-4.51c-2.46-1.63-4.8-2.94-6.51-3.85a20.74,20.74,0,0,1-2.76-1.51A15.89,15.89,0,0,1,219.53,66a54.44,54.44,0,0,1,6.64,3.74,52,52,0,0,1,6,4.67A14.37,14.37,0,0,1,234.39,76.69Z" style="fill:#263238"></path><path d="M262.81,118.22a12,12,0,0,1-2.88,1.23,25.33,25.33,0,0,1-8.47.89,48.67,48.67,0,0,1-5.87-.63,43,43,0,0,1-6.59-1.59,38.71,38.71,0,0,1-13.48-7.55,32.27,32.27,0,0,1-9-12.56,46.15,46.15,0,0,1-2.73-12.35c-.32-3.59-.36-6.5-.38-8.51V74.83a4.63,4.63,0,0,1,0-.81,4.29,4.29,0,0,1,.06.81c0,.58.06,1.35.1,2.31.08,2,.19,4.92.55,8.49A46.51,46.51,0,0,0,217,97.84a32.1,32.1,0,0,0,8.87,12.33,38.86,38.86,0,0,0,13.29,7.5,43.47,43.47,0,0,0,6.51,1.61,48.9,48.9,0,0,0,5.82.69,26.32,26.32,0,0,0,8.4-.72C261.81,118.72,262.78,118.16,262.81,118.22Z" style="fill:#263238"></path><path d="M244.22,119.24a4.43,4.43,0,0,1-1.14.59,19.4,19.4,0,0,1-3.33,1.06,17.78,17.78,0,0,1-5.18.38,54.46,54.46,0,0,1-6.29-.74,39.06,39.06,0,0,1-10.95-3.45,22.33,22.33,0,0,1-3-1.84,7.36,7.36,0,0,1-1-.83c.07-.09,1.47,1.09,4.11,2.34A43.4,43.4,0,0,0,228.37,120c4.39.72,8.45,1.16,11.3.51a24.81,24.81,0,0,0,3.34-.89A10.54,10.54,0,0,1,244.22,119.24Z" style="fill:#263238"></path><path d="M267.72,42.2l.17.16.47.51,1.78,2c.78.86,1.68,2,2.72,3.23s2.21,2.75,3.46,4.4a107.12,107.12,0,0,1,8,12.2c.63,1.22,1.34,2.44,1.93,3.75.31.65.62,1.31.94,2l.85,2c.61,1.37,1.06,2.83,1.58,4.28s.89,3,1.2,4.55c2.9,12.46-1.47,24.87-8.22,30a17.61,17.61,0,0,1-9,3.84,13.71,13.71,0,0,1-2.67,0l-.69-.09-.24,0a21.52,21.52,0,0,0,3.58-.12,17.82,17.82,0,0,0,8.76-3.93c6.55-5,10.81-17.26,7.94-29.56-.31-1.54-.76-3-1.19-4.5s-.95-2.89-1.55-4.25c-.28-.68-.57-1.36-.84-2s-.62-1.32-.93-2c-.58-1.31-1.28-2.52-1.9-3.74A110.66,110.66,0,0,0,276,52.71c-1.23-1.66-2.34-3.16-3.38-4.44s-1.9-2.4-2.66-3.27l-1.7-2.06-.43-.54C267.75,42.27,267.71,42.21,267.72,42.2Z" style="fill:#263238"></path><path d="M303.26,75.83a7.78,7.78,0,0,1,.05,1.37c0,.88-.06,2.16-.22,3.73a36,36,0,0,1-1,5.47,23,23,0,0,1-2.61,6.29,50.49,50.49,0,0,1-7.66,9.66,18.35,18.35,0,0,1-3,2.22c-.38.23-.7.37-.9.47s-.33.15-.34.13a32.57,32.57,0,0,0,4-3.09,55.88,55.88,0,0,0,7.46-9.66,23.51,23.51,0,0,0,2.6-6.14,42,42,0,0,0,1.06-5.39c.2-1.55.31-2.82.38-3.7A6.42,6.42,0,0,1,303.26,75.83Z" style="fill:#263238"></path><g style="opacity:0.30000000000000004"><path d="M289.58,101.69a26.5,26.5,0,0,0,3.86-20.18,35.78,35.78,0,0,0-10.18-18.14c2.57,5.92,5.16,11.87,6.72,18.13a43.35,43.35,0,0,1-.4,20.19"></path></g><path d="M273.84,133.42a18.71,18.71,0,0,1-.65-2.46,39.08,39.08,0,0,0-4.79-11.16,17.31,17.31,0,0,1-1.33-2.17,9.31,9.31,0,0,1,1.63,2,29.94,29.94,0,0,1,4.85,11.28A9.46,9.46,0,0,1,273.84,133.42Z" style="fill:#263238"></path><path d="M88.14,312.16c.86.21,39,9.4,51.34,1.39L198.63,340s-51.25,41.09-105.78,36.79c0,0-8.13-10.28-10.69-33.59S88.14,312.16,88.14,312.16Z" style="fill:#263238"></path><path d="M114.89,316.48s0,.22-.1.63-.16,1-.23,1.82a37.62,37.62,0,0,0,0,6.73,51.23,51.23,0,0,0,1.89,9.81,74,74,0,0,0,4.43,11.4A97.5,97.5,0,0,0,127,357.5a42.36,42.36,0,0,0,6.67,7.41,44.47,44.47,0,0,0,5.38,4c.67.43,1.2.75,1.57,1a2.86,2.86,0,0,1,.54.34,3.87,3.87,0,0,1-.59-.25c-.38-.18-.93-.47-1.63-.88a39.18,39.18,0,0,1-5.52-3.95,41.28,41.28,0,0,1-6.81-7.41,92.68,92.68,0,0,1-6.17-10.67A72.82,72.82,0,0,1,116,335.6a49.16,49.16,0,0,1-1.79-9.91,33.92,33.92,0,0,1,.13-6.78,16,16,0,0,1,.33-1.82A1.91,1.91,0,0,1,114.89,316.48Z" style="fill:#263238"></path><path d="M110,316a2.9,2.9,0,0,1,0,.65c0,.43-.06,1.06-.07,1.87a54.27,54.27,0,0,0,.3,6.86,72.84,72.84,0,0,0,1.79,10,85,85,0,0,0,4,11.79l1.36,3c.42,1,1,1.91,1.43,2.84s.92,1.86,1.45,2.71l1.5,2.54a41.87,41.87,0,0,0,6.05,8.15,29.45,29.45,0,0,0,5.24,4.4c.67.44,1.23.74,1.6.94a4.38,4.38,0,0,1,.58.31,2.28,2.28,0,0,1-.62-.21,16.59,16.59,0,0,1-1.67-.87,27.53,27.53,0,0,1-5.4-4.32,41.14,41.14,0,0,1-6.19-8.15L119.81,356c-.54-.86-1-1.8-1.47-2.72s-1-1.86-1.45-2.85-.9-2-1.37-3a82.44,82.44,0,0,1-4-11.88,70.72,70.72,0,0,1-1.69-10.1,47.82,47.82,0,0,1-.13-6.9,17.35,17.35,0,0,1,.17-1.87A3.29,3.29,0,0,1,110,316Z" style="fill:#263238"></path><path d="M148.34,367.75a3.63,3.63,0,0,1-.21-.6,8.11,8.11,0,0,1-.12-1.83,31.76,31.76,0,0,1,1.22-6.72l.19.21a42.23,42.23,0,0,1-5.35,1.09,8.35,8.35,0,0,1-3.15-.29,7.26,7.26,0,0,1-2.91-1.76,10.1,10.1,0,0,1-2.12-2.92,11,11,0,0,1-.95-3.67,17.63,17.63,0,0,1,1.32-7.85l.28.37a12,12,0,0,1-2.69.08,14,14,0,0,1-6.92-2.58,9.61,9.61,0,0,1-2.48-2.57,6.66,6.66,0,0,1-1-3.3,15.66,15.66,0,0,1,1.11-6.22,35.57,35.57,0,0,1,2.35-5l.15.28a14.87,14.87,0,0,1-5.15-1.74,9.78,9.78,0,0,1-3.06-2.73,5.37,5.37,0,0,1-1-2.39,2.29,2.29,0,0,1,0-.91s0,.31.06.89a5.57,5.57,0,0,0,1.07,2.28,9.56,9.56,0,0,0,3,2.59,14.72,14.72,0,0,0,5,1.63l.27,0-.13.24a37.35,37.35,0,0,0-2.28,5,15.39,15.39,0,0,0-1,6,6.23,6.23,0,0,0,.94,3.06,9.35,9.35,0,0,0,2.36,2.42,13.46,13.46,0,0,0,6.66,2.48,10.94,10.94,0,0,0,2.57-.08l.45-.05-.17.42a17,17,0,0,0-1.3,7.59,10.8,10.8,0,0,0,.89,3.51,9.49,9.49,0,0,0,2,2.78,6.84,6.84,0,0,0,2.72,1.68,7.87,7.87,0,0,0,3,.3,41.87,41.87,0,0,0,5.31-1l.28-.05-.08.26a33.91,33.91,0,0,0-1.36,6.64,8.89,8.89,0,0,0,0,1.8A3.37,3.37,0,0,1,148.34,367.75Z" style="fill:#263238"></path><path d="M121.32,358.65a34.08,34.08,0,0,1-2.86,2.18,50.43,50.43,0,0,0-6.47,5.72,33,33,0,0,0-5,7c-1,1.95-1.51,3.24-1.6,3.21a3.79,3.79,0,0,1,.26-.94,23.25,23.25,0,0,1,1-2.44,29.43,29.43,0,0,1,5-7.19,41.47,41.47,0,0,1,6.64-5.65c.92-.64,1.68-1.13,2.21-1.44A3.73,3.73,0,0,1,121.32,358.65Z" style="fill:#263238"></path><path d="M110.09,331s-1,.27-2.84.87a35.32,35.32,0,0,0-7.36,3.34,36.91,36.91,0,0,0-13.27,13.37l-.89,1.62-.8,1.71a5.43,5.43,0,0,0-.53,1.75,1.65,1.65,0,0,0,.62,1.5,6.53,6.53,0,0,0,1.67.84c.6.24,1.18.5,1.78.72,1.19.43,2.37.84,3.55,1.19a56.52,56.52,0,0,0,18.86,2.28,56.11,56.11,0,0,0,8-1c1-.15,1.67-.35,2.17-.44a3.24,3.24,0,0,1,.76-.13,7.15,7.15,0,0,1-.74.23c-.49.12-1.2.35-2.15.54a50.9,50.9,0,0,1-8.06,1.13A55.3,55.3,0,0,1,98.84,360a56.11,56.11,0,0,1-7-1.58c-1.2-.35-2.39-.76-3.59-1.2-.6-.22-1.2-.48-1.8-.72a6.78,6.78,0,0,1-1.8-.91,2.21,2.21,0,0,1-.81-2,6,6,0,0,1,.57-1.92c.28-.58.55-1.16.82-1.73s.61-1.1.91-1.65a37.58,37.58,0,0,1,4.18-5.8,37,37,0,0,1,9.35-7.63,33.08,33.08,0,0,1,7.48-3.21c.91-.3,1.65-.43,2.14-.55A4.39,4.39,0,0,1,110.09,331Z" style="fill:#263238"></path><path d="M86.44,314.34a6.17,6.17,0,0,1,.38,1.17A21.06,21.06,0,0,0,88,318.62l.5,1,.26.52.34.5c.22.35.45.7.69,1.06s.56.69.86,1a18.77,18.77,0,0,0,4.57,3.83,29.66,29.66,0,0,0,10.28,3.54c2.77.44,4.52.49,4.52.59a6.57,6.57,0,0,1-1.23,0,28.08,28.08,0,0,1-3.35-.26A27.64,27.64,0,0,1,94.9,327a18.76,18.76,0,0,1-4.67-4L89.37,322l-.69-1.1-.33-.53-.26-.54-.47-1a15.89,15.89,0,0,1-1-3.21A5,5,0,0,1,86.44,314.34Z" style="fill:#263238"></path><path d="M112.29,336.92a16.37,16.37,0,0,1-1.76.65,36.74,36.74,0,0,0-4.7,2.05A35.28,35.28,0,0,0,93.2,350.71l-.12-.39.91.35a46.39,46.39,0,0,0,17.29,3,51.61,51.61,0,0,0,5.35-.39,18.55,18.55,0,0,1,2-.23,1.71,1.71,0,0,1-.5.14c-.32.07-.81.19-1.43.29a40.88,40.88,0,0,1-5.37.55,44.69,44.69,0,0,1-17.49-2.86l-.91-.35-.31-.12.19-.27a34.27,34.27,0,0,1,12.9-11.12,30.35,30.35,0,0,1,4.79-1.92c.58-.19,1.05-.29,1.35-.37Z" style="fill:#263238"></path><path d="M95.62,313.76c.07-.05.58.84,1.55,2.14a18.28,18.28,0,0,0,4.57,4.32,26.73,26.73,0,0,0,5.73,2.68,16.56,16.56,0,0,1,2.5.89,11,11,0,0,1-2.61-.54,22,22,0,0,1-5.9-2.6,16.17,16.17,0,0,1-4.59-4.53,15.1,15.1,0,0,1-1-1.7C95.68,314,95.58,313.77,95.62,313.76Z" style="fill:#263238"></path><path d="M116.64,376.76a8.27,8.27,0,0,1,.64-2.23,21.89,21.89,0,0,1,2.65-4.93,21.58,21.58,0,0,1,3.89-4,7.72,7.72,0,0,1,1.93-1.29c.13.15-2.84,2.15-5.39,5.63S116.83,376.84,116.64,376.76Z" style="fill:#263238"></path><path d="M183.6,350.29a2.65,2.65,0,0,1-.66,0c-.43,0-1.06,0-1.87-.07-1.63-.09-4-.29-6.86-.74a56.26,56.26,0,0,1-9.94-2.47,44.6,44.6,0,0,1-11.14-5.74,56.31,56.31,0,0,1-15.36-16.67,51.17,51.17,0,0,1-3.17-6.13c-.33-.74-.54-1.34-.7-1.74a2.58,2.58,0,0,1-.2-.62,4.66,4.66,0,0,1,.3.58c.19.39.42,1,.79,1.7a60.73,60.73,0,0,0,3.29,6,58,58,0,0,0,15.35,16.43,45.1,45.1,0,0,0,11,5.72,58.7,58.7,0,0,0,9.84,2.56c2.86.49,5.19.75,6.81.89l1.87.17A6.13,6.13,0,0,1,183.6,350.29Z" style="fill:#263238"></path><path d="M156.59,364.42a2.92,2.92,0,0,1-.06-.32l-.12-1c0-.42,0-.95,0-1.58a18.45,18.45,0,0,1,.32-2.13,26.82,26.82,0,0,1,1.9-5.57c.46-1.05,1-2.14,1.67-3.27.32-.57.67-1.14,1-1.72l.57-.87.31-.44a2.87,2.87,0,0,1,.4-.47.19.19,0,1,1,.26.29l0,0,0,0-6.18,4.14a15.2,15.2,0,0,1-7.93,2.8,8.22,8.22,0,0,1-4.46-1,5.83,5.83,0,0,1-2.89-3.76,9.45,9.45,0,0,1,.44-4.88,16.64,16.64,0,0,1,2.22-4.49,17.21,17.21,0,0,1,3-3.28l.28.43c-3.22,1.69-6.58,3.38-10.14,3.31a9.56,9.56,0,0,1-4.88-1.4,6.72,6.72,0,0,1-2.9-3.85,9.9,9.9,0,0,1-.13-4.55,15.08,15.08,0,0,1,1.35-4c1.19-2.42,3.12-4.35,5.34-4.89l.06.33a11.08,11.08,0,0,1-5.28-.82,11.32,11.32,0,0,1-3.36-2.14,10.72,10.72,0,0,1-1.62-1.88c-.15-.24-.25-.43-.32-.55l-.1-.2a14.17,14.17,0,0,0,2.16,2.5,11.53,11.53,0,0,0,3.34,2A10.9,10.9,0,0,0,136,322a.17.17,0,0,1,.18.15.16.16,0,0,1-.12.18A8.48,8.48,0,0,0,131,327a14.76,14.76,0,0,0-1.28,3.9,9.53,9.53,0,0,0,.14,4.34,6.27,6.27,0,0,0,2.72,3.58,9.13,9.13,0,0,0,4.63,1.3c3.39.06,6.68-1.58,9.89-3.27a.27.27,0,0,1,.35.11.26.26,0,0,1-.06.32,16.46,16.46,0,0,0-2.93,3.18,16.07,16.07,0,0,0-2.16,4.35,9,9,0,0,0-.43,4.61,5.28,5.28,0,0,0,2.64,3.43,7.56,7.56,0,0,0,4.18,1,14.83,14.83,0,0,0,7.71-2.67l6.21-4.11.12.18.08.16h0l0,0-.07.09-.16.2-.3.43-.58.85c-.37.57-.71,1.14-1,1.7-.64,1.11-1.22,2.18-1.7,3.22a26.9,26.9,0,0,0-2,5.49A14.68,14.68,0,0,0,156.59,364.42Z" style="fill:#263238"></path><path d="M154.6,338.7a11.67,11.67,0,0,1-8.48-7.57,24.25,24.25,0,0,0,3.6,4.5A24.12,24.12,0,0,0,154.6,338.7Z" style="fill:#fff"></path><path d="M125,350.71a13.37,13.37,0,0,1-4.33-8.83c.15,0,.58,2.16,1.79,4.6S125.08,350.61,125,350.71Z" style="fill:#fff"></path><path d="M118.8,348.88c-.14.06-.4-.23-.59-.66s-.25-.82-.11-.88.39.24.58.67S118.93,348.83,118.8,348.88Z" style="fill:#fff"></path><path d="M115.31,350.84a14.66,14.66,0,0,1-3.16-8.67c.15,0,.5,2,1.37,4.41S115.44,350.76,115.31,350.84Z" style="fill:#fff"></path><path d="M172.9,340.06c-17.81-4.26-32.19-17.74-36.71-35.48-.12-.49-.24-1-.35-1.47-3.07-13.75-9.64-30.4-15.33-42.67,0,0-13.59-22.1-16.49-31.81s-4.54-22.1-2.06-31.19,6.19-13.22,8.88-23.13,1-15.91,2.48-18,10.12-1.86,12,10.53c0,0,7-8.05,8.47-17.55s4.13-10.54,7.23-9.92,5.16,7,5.16,7,6.4-10.53,7.64-15.9,3.1-16.32,10.33-12,5.37,14.87,4.34,20.24-9.71,18.59-10.33,19.21l-2.27,2.27s2,12.4-1.12,21.74c0,0,6.28-12.44,25.91-12.65s37.59,10.33,46.06,11.16,5.78,6.81,2.89,8.26a28.89,28.89,0,0,1-11.82,3.78A33.46,33.46,0,0,1,205.24,191c-13.64-4.13-14.46-6.4-14.46-6.4S176.89,196,166.59,195.38a41.65,41.65,0,0,1,2.71,25.41s24.78,10.53,28.29,26.44c0,0,6.82-5.3,11.37-4.51,0,0-1.66-4.58,2.47-10.78a14.73,14.73,0,0,1-3.51-13.63c1.86-8.68,5.37-23.76,9.92-24s5.16,2.58,6.61,8.52,9.91,38.37,8.88,56.34-2.27,38-13.43,54.32S203.38,337.08,198.63,340C195.57,341.83,186.08,343.21,172.9,340.06Z" style="fill:#ffbf9d"></path><path d="M166.05,305.94a3.69,3.69,0,0,1,.31-.72c.2-.47.58-1.12.94-2a43.68,43.68,0,0,0,2.6-7.74,44.49,44.49,0,0,0,1.17-12,42,42,0,0,0-10.92-26.91A45,45,0,0,0,143.67,245c-.88-.39-1.61-.59-2.08-.79a4.37,4.37,0,0,1-.72-.29,4.32,4.32,0,0,1,.75.19c.49.17,1.22.34,2.12.7a41.07,41.07,0,0,1,7.39,3.62,42.94,42.94,0,0,1,19.13,47.14,41,41,0,0,1-2.77,7.74c-.4.89-.8,1.53-1,2A5.14,5.14,0,0,1,166.05,305.94Z" style="fill:#ff9a6c"></path><path d="M191.47,301a2.88,2.88,0,0,1-.35-.48c-.21-.33-.55-.8-.91-1.45a38.13,38.13,0,0,1-2.75-5.66,41.56,41.56,0,0,1,5-39.64,38.11,38.11,0,0,1,4.06-4.81c.51-.54,1-.91,1.24-1.18s.45-.39.47-.37a3.35,3.35,0,0,1-.39.45c-.26.29-.69.68-1.17,1.24a43.92,43.92,0,0,0-3.91,4.88,43.15,43.15,0,0,0-2.37,45c.34.67.65,1.15.83,1.5A2,2,0,0,1,191.47,301Z" style="fill:#ff9a6c"></path><path d="M213.56,246.7a6.51,6.51,0,0,1-5-4.79,28.62,28.62,0,0,0,2.16,2.74A28.59,28.59,0,0,0,213.56,246.7Z" style="fill:#ff9a6c"></path><path d="M215.61,235.57a7.83,7.83,0,0,1-5-5.21c.14-.07.85,1.42,2.24,2.86S215.68,235.43,215.61,235.57Z" style="fill:#ff9a6c"></path><g style="opacity:0.2"><path d="M223.09,198.64a4.87,4.87,0,0,0-3.24,3.76,14.39,14.39,0,0,0,.11,5.19l.88,6.1c.31,2.18.67,4.47,2,6.21s4.06,2.63,5.81,1.29" style="fill:#fff"></path></g><g style="opacity:0.2"><path d="M149.37,140.66c.6,1.6,2.81,2.09,4.36,1.37a7.72,7.72,0,0,0,3.29-3.8,35.4,35.4,0,0,0,2.63-7.64A11.41,11.41,0,0,0,160,126a4.65,4.65,0,0,0-2.68-3.6" style="fill:#fff"></path></g><g style="opacity:0.2"><path d="M135.36,143.79c-1.19.53-2.19,9.29-3.47,12.22l-3.26,6.52c.12,1,.61,2.08,1.59,2.09a4.81,4.81,0,0,0,3.32-1.31,18.23,18.23,0,0,0,5.14-12.47C138.7,148.1,137.82,145,135.36,143.79Z" style="fill:#fff"></path></g><g style="opacity:0.2"><path d="M113,160.63c-.77,8.21-2.26,15.5-4.82,21.37,2,.53,4.67-1.27,5.9-2.95a17.36,17.36,0,0,0,3.73-9.67C117.88,165.87,116.16,162.19,113,160.63Z" style="fill:#fff"></path></g><g style="opacity:0.2"><path d="M207.29,175.07c-1.16,1.2-.84,3.3.27,4.55a8.88,8.88,0,0,0,4.39,2.3,45.33,45.33,0,0,0,8.1,1.5,10.27,10.27,0,0,0,3.79-.17,4.17,4.17,0,0,0,2.83-2.36" style="fill:#fff"></path></g><path d="M228.68,221.19s-.06.09-.22.21a3,3,0,0,1-.79.4,4.31,4.31,0,0,1-3.2-.36A5.16,5.16,0,0,1,222.7,220a8,8,0,0,1-1.24-2.28,30.51,30.51,0,0,1-1.12-5.72c-.29-2-.58-4-.8-5.74a9.81,9.81,0,0,1,.39-4.77,5,5,0,0,1,2-2.49,3.48,3.48,0,0,1,.81-.35,1,1,0,0,1,.31,0,10.91,10.91,0,0,0-1,.56,5.11,5.11,0,0,0-1.81,2.45c-1,2.51.1,6.26.58,10.31a33.58,33.58,0,0,0,1.06,5.63,7.56,7.56,0,0,0,1.13,2.17,5.21,5.21,0,0,0,1.6,1.36,4.27,4.27,0,0,0,3,.49C228.32,221.42,228.65,221.14,228.68,221.19Z" style="fill:#ff9a6c"></path><path d="M172.06,222a1.86,1.86,0,0,1-.52,0l-1.46-.15a21.43,21.43,0,0,0-2.31-.2c-.91,0-1.93-.14-3.07-.09l-1.79,0c-.62,0-1.26.08-1.93.13-1.33.06-2.75.29-4.23.5a54.6,54.6,0,0,0-9.43,2.52,55.41,55.41,0,0,0-8.76,4.33c-1.25.83-2.47,1.58-3.51,2.42-.53.41-1.07.77-1.54,1.17l-1.35,1.17c-.89.72-1.59,1.47-2.25,2.09a23.07,23.07,0,0,0-1.6,1.68l-1,1.08c-.23.24-.36.36-.38.35a2.42,2.42,0,0,1,.3-.42l.92-1.15a19.51,19.51,0,0,1,1.56-1.74,28.47,28.47,0,0,1,2.2-2.17l1.35-1.2c.47-.41,1-.79,1.53-1.21,1-.85,2.26-1.63,3.52-2.48a48.31,48.31,0,0,1,18.36-6.92c1.5-.19,2.93-.41,4.28-.45.68,0,1.33-.1,2-.1h1.8c1.15,0,2.18.11,3.09.17a19.2,19.2,0,0,1,2.32.29l1.45.25A1.79,1.79,0,0,1,172.06,222Z" style="fill:#ff9a6c"></path><path d="M125.28,166.59a3.71,3.71,0,0,1,.16.77,22.36,22.36,0,0,1,.26,2.24,25.57,25.57,0,0,1-.7,8.25,24.31,24.31,0,0,1-2.06,5.35c-1,1.85-2.27,3.62-3.2,5.7a9.37,9.37,0,0,0-.87,3.32,11.28,11.28,0,0,0,.48,3.56c.34,1.2.78,2.4,1.16,3.65a24.79,24.79,0,0,1,.85,3.88,26.17,26.17,0,0,1-3.73,17.48l-.12-.34a19.42,19.42,0,0,1,7.19,4.33,20,20,0,0,1,3.93,5.17,18.88,18.88,0,0,1,1.53,3.91c.13.46.18.83.23,1.08s.07.37.05.37-.15-.49-.42-1.42a20.22,20.22,0,0,0-1.63-3.81,20,20,0,0,0-3.95-5,19.19,19.19,0,0,0-7.07-4.17l-.28-.1.16-.24a26,26,0,0,0,3.6-17.17,25.18,25.18,0,0,0-.83-3.8c-.38-1.23-.82-2.44-1.16-3.66a11.29,11.29,0,0,1-.48-3.73,9.69,9.69,0,0,1,.92-3.49c1-2.14,2.31-3.9,3.26-5.7a24,24,0,0,0,2.08-5.25,27,27,0,0,0,.86-8.14c0-1-.11-1.72-.16-2.23A7.37,7.37,0,0,1,125.28,166.59Z" style="fill:#ff9a6c"></path><path d="M137.8,228.08a1.47,1.47,0,0,1,0-.39c0-.3,0-.68-.06-1.15a30.62,30.62,0,0,0-.6-4.32,29.24,29.24,0,0,0-7-13.67l-.12-.14.11-.15a34.57,34.57,0,0,0,5-9.51,38.66,38.66,0,0,0,1.42-5.75,40.38,40.38,0,0,0,.43-6.17,35.13,35.13,0,0,0-1.77-10.23l-.06-.18.16-.11A29,29,0,0,0,144,166.22a28.68,28.68,0,0,0,2.17-5.34A28.1,28.1,0,0,0,147,156a25.17,25.17,0,0,0-.32-7.07c-.13-.83-.34-1.44-.43-1.86a4.33,4.33,0,0,1-.13-.66,3.28,3.28,0,0,1,.22.63c.11.42.35,1,.51,1.85a23.54,23.54,0,0,1,.47,7.13,27,27,0,0,1-.87,5,28.86,28.86,0,0,1-2.15,5.43,29.3,29.3,0,0,1-8.88,10.3l.09-.29a35.29,35.29,0,0,1,1.81,10.39,40.3,40.3,0,0,1-.44,6.26,39.75,39.75,0,0,1-1.45,5.83,34.65,34.65,0,0,1-5.07,9.62l0-.28a28.88,28.88,0,0,1,7,13.91A22,22,0,0,1,137.8,228.08Z" style="fill:#ff9a6c"></path><path d="M155.5,179.33a11.78,11.78,0,0,1-.39,1.62c-.29,1-.72,2.55-1.31,4.39a44.17,44.17,0,0,1-6.7,13.74v-.33c.35.43.74.87,1.1,1.34a26.24,26.24,0,0,1,4.17,8.09,26.54,26.54,0,0,1,1.17,7.32,24.32,24.32,0,0,1-.41,5c-.11.58-.24,1-.32,1.32s-.13.46-.15.45a18,18,0,0,1,.27-1.81,27.25,27.25,0,0,0-1-12.13,26.68,26.68,0,0,0-4.12-7.91c-.35-.46-.73-.9-1.08-1.31l-.13-.17.12-.17c3.67-4.75,5.49-9.9,6.78-13.53l1.45-4.33A9.54,9.54,0,0,1,155.5,179.33Z" style="fill:#ff9a6c"></path><path d="M157.33,122.35a2,2,0,0,1,1,.46,4.87,4.87,0,0,1,1.71,2.47,9.21,9.21,0,0,1,.05,4.45,38.85,38.85,0,0,1-1.42,5.23,24.06,24.06,0,0,1-2.31,4.92,5.4,5.4,0,0,1-3.59,2.62,3.46,3.46,0,0,1-2.86-.87,2.33,2.33,0,0,1-.47-.69.82.82,0,0,1-.07-.28c.06,0,.16.38.68.82a3.33,3.33,0,0,0,2.67.65,5.06,5.06,0,0,0,3.24-2.51,26,26,0,0,0,2.22-4.83,43.47,43.47,0,0,0,1.43-5.15,8.94,8.94,0,0,0,.07-4.26,5,5,0,0,0-1.47-2.42C157.68,122.52,157.31,122.39,157.33,122.35Z" style="fill:#ff9a6c"></path><path d="M135.36,143.79a.75.75,0,0,1,.27.1,3.45,3.45,0,0,1,.71.42,5.78,5.78,0,0,1,1.81,2.42c1,2.39,1,6.12-.19,9.81a17.42,17.42,0,0,1-4.06,6.7,7.12,7.12,0,0,1-1.62,1.34,2.82,2.82,0,0,1-1.73.41,2.17,2.17,0,0,1-1.22-.56,1.18,1.18,0,0,1-.46-1,1.87,1.87,0,0,0,1.71,1.27,2.59,2.59,0,0,0,1.51-.43,16.79,16.79,0,0,0,5.38-7.89c1.2-3.6,1.25-7.21.34-9.51a6.07,6.07,0,0,0-1.6-2.4C135.69,144,135.34,143.84,135.36,143.79Z" style="fill:#ff9a6c"></path><path d="M113,160.63a.84.84,0,0,1,.27.09,4.3,4.3,0,0,1,.71.38,7.79,7.79,0,0,1,2.14,2,10.1,10.1,0,0,1,1.73,4,11.84,11.84,0,0,1-.23,5.36,17.86,17.86,0,0,1-2.16,4.9,15,15,0,0,1-2.74,3.42,4.61,4.61,0,0,1-2.68,1.24,2.54,2.54,0,0,1-.81-.07c-.18,0-.27-.09-.26-.1s.39.06,1,0a4.75,4.75,0,0,0,2.46-1.32,15.69,15.69,0,0,0,2.57-3.39,18.75,18.75,0,0,0,2.07-4.78,11.78,11.78,0,0,0,.26-5.14,10.2,10.2,0,0,0-1.56-3.91A10.75,10.75,0,0,0,113,160.63Z" style="fill:#ff9a6c"></path><path d="M226.67,180.89a1.84,1.84,0,0,1-.42.94,4.51,4.51,0,0,1-2.33,1.59,10.8,10.8,0,0,1-4.16.21,43.54,43.54,0,0,1-5-.75,29.49,29.49,0,0,1-4.88-1.41,5.59,5.59,0,0,1-3.11-2.77,3.58,3.58,0,0,1-.1-2.81,2.27,2.27,0,0,1,.42-.65c.13-.13.2-.18.21-.17a9,9,0,0,0-.44.89,3.59,3.59,0,0,0,.24,2.59,5.37,5.37,0,0,0,3,2.48,32.78,32.78,0,0,0,4.8,1.34,47.7,47.7,0,0,0,4.94.78,10.82,10.82,0,0,0,4-.09,4.62,4.62,0,0,0,2.27-1.36C226.5,181.22,226.63,180.87,226.67,180.89Z" style="fill:#ff9a6c"></path><path d="M159.64,191.92a16.72,16.72,0,0,1,3.84,1.73,17,17,0,0,1,3.61,2.19,17.79,17.79,0,0,1-3.85-1.73A17.7,17.7,0,0,1,159.64,191.92Z" style="fill:#ff9a6c"></path><path d="M192.48,185.18c0,.06-.38.08-.92-.15a3.76,3.76,0,0,1-2.14-3.71c.07-.59.27-.9.33-.88s0,.37,0,.89a4.38,4.38,0,0,0,.57,1.92,4.44,4.44,0,0,0,1.38,1.46C192.18,185,192.5,185.1,192.48,185.18Z" style="fill:#ff9a6c"></path></g></svg>