<svg width="375" height="113" viewBox="0 0 375 113" fill="none" xmlns="http://www.w3.org/2000/svg">
<g clip-path="url(#clip0_6_35)">
<path d="M52.2719 112.981L83.3086 84.505L57.6073 56.4997L26.5706 84.976L52.2719 112.981Z" fill="black"/>
<path d="M73.539 73.4022C77.6528 73.4022 80.9877 70.1828 80.9877 66.2113C80.9877 62.2399 77.6528 59.0204 73.539 59.0204C69.4253 59.0204 66.0904 62.2399 66.0904 66.2113C66.0904 70.1828 69.4253 73.4022 73.539 73.4022Z" fill="black"/>
<path d="M44.5503 82.1818C49.0896 82.1818 52.7695 78.6174 52.7695 74.2205C52.7695 69.8235 49.0896 66.2591 44.5503 66.2591C40.011 66.2591 36.3311 69.8235 36.3311 74.2205C36.3311 78.6174 40.011 82.1818 44.5503 82.1818Z" fill="white"/>
<path d="M25.7013 84.8351L56.738 56.3587L31.0368 28.3534L0.000101985 56.8297L25.7013 84.8351Z" fill="black"/>
<path d="M44.2935 81.1545C48.4072 81.1545 51.7421 77.9351 51.7421 73.9636C51.7421 69.9922 48.4072 66.7727 44.2935 66.7727C40.1797 66.7727 36.8448 69.9922 36.8448 73.9636C36.8448 77.9351 40.1797 81.1545 44.2935 81.1545Z" fill="black"/>
<path d="M40.9544 52.9045C45.4937 52.9045 49.1736 49.3401 49.1736 44.9432C49.1736 40.5462 45.4937 36.9818 40.9544 36.9818C36.4151 36.9818 32.7352 40.5462 32.7352 44.9432C32.7352 49.3401 36.4151 52.9045 40.9544 52.9045Z" fill="white"/>
<path d="M58.4363 56.4815L89.4729 28.0052L63.7717 -0.000106923L32.735 28.4762L58.4363 56.4815Z" fill="black"/>
<path d="M79.7389 17.4636C83.8526 17.4636 87.1875 14.2442 87.1875 10.2727C87.1875 6.3013 83.8526 3.08182 79.7389 3.08182C75.6251 3.08182 72.2902 6.3013 72.2902 10.2727C72.2902 14.2442 75.6251 17.4636 79.7389 17.4636Z" fill="black"/>
<path d="M72.5471 47.2545C76.6609 47.2545 79.9957 44.0351 79.9957 40.0636C79.9957 36.0922 76.6609 32.8727 72.5471 32.8727C68.4333 32.8727 65.0985 36.0922 65.0985 40.0636C65.0985 44.0351 68.4333 47.2545 72.5471 47.2545Z" fill="white"/>
<path d="M41.2113 51.8773C45.325 51.8773 48.6599 48.6578 48.6599 44.6864C48.6599 40.7149 45.325 37.4955 41.2113 37.4955C37.0975 37.4955 33.7626 40.7149 33.7626 44.6864C33.7626 48.6578 37.0975 51.8773 41.2113 51.8773Z" fill="black"/>
<path d="M102.577 63.1216L93.3519 48.5339H97.3608L104.563 60.0778L111.616 48.5339H115.625L106.437 63.0841V74.3682H102.577V63.1216ZM119.356 70.9535C118.948 70.2483 118.62 69.4193 118.373 68.4665C118.137 67.5137 118.02 66.2702 118.02 64.736C118.02 63.2017 118.347 61.7913 119.003 60.5046C119.672 59.2051 120.538 58.1414 121.602 57.3124C123.669 55.7165 126.236 54.9182 129.305 54.9182C130.901 54.9182 132.108 54.9553 132.925 55.0296C132.925 55.0296 133.525 55.0915 134.725 55.2151V74.3682H131.384L131.236 72.1595C130.493 73.1493 129.361 73.8859 127.839 74.3682C127.257 74.5536 126.657 74.6466 126.038 74.6466C125.432 74.6466 124.832 74.5849 124.238 74.4611C123.644 74.3374 123.05 74.1329 122.456 73.8484C121.874 73.5638 121.318 73.1868 120.785 72.7163C120.253 72.234 119.777 71.6464 119.356 70.9535ZM131.013 57.9431C130.221 57.8445 129.429 57.7947 128.637 57.7947C127.858 57.7947 127.022 57.937 126.131 58.2215C125.24 58.4937 124.479 58.9272 123.848 59.521C122.536 60.7584 121.881 62.6449 121.881 65.1813C121.881 67.5815 122.444 69.3571 123.57 70.5077C124.423 71.3613 125.45 71.7887 126.651 71.7887C128.198 71.7887 129.472 71.2257 130.474 70.0993C130.722 69.8148 130.901 69.5616 131.013 69.3387V57.9431ZM143.56 57.3124C144.637 56.4834 145.843 55.8773 147.18 55.4936C148.528 55.11 149.704 54.9182 150.706 54.9182C151.709 54.9182 152.482 54.943 153.027 54.9924V46.7522H156.72V74.3682H153.398L153.249 72.1595C152.495 73.1616 151.35 73.9044 149.816 74.3867C149.221 74.5721 148.615 74.6651 147.997 74.6651C147.39 74.6651 146.79 74.6034 146.196 74.4796C145.602 74.3559 145.008 74.1514 144.414 73.8669C143.833 73.57 143.276 73.1868 142.743 72.7163C142.211 72.234 141.735 71.6464 141.314 70.9535C140.423 69.4316 139.978 67.6313 139.978 65.5526C139.978 63.474 140.306 61.7913 140.961 60.5046C141.63 59.2051 142.496 58.1414 143.56 57.3124ZM145.806 59.521C145.175 60.1148 144.686 60.8816 144.34 61.8221C144.006 62.7502 143.839 63.8823 143.839 65.2188C143.839 66.5424 143.999 67.6375 144.321 68.5035C144.643 69.3571 145.045 70.0254 145.528 70.5077C146.382 71.3742 147.408 71.8072 148.609 71.8072C150.156 71.8072 151.436 71.2381 152.451 70.0993C152.711 69.8148 152.897 69.5616 153.008 69.3387V57.9246L152.637 57.8876C152.068 57.8137 151.387 57.7762 150.595 57.7762C149.816 57.7762 148.98 57.9185 148.089 58.203C147.198 58.4752 146.437 58.9144 145.806 59.521ZM163.681 70.9535C163.272 70.2483 162.945 69.4193 162.697 68.4665C162.462 67.5137 162.344 66.2702 162.344 64.736C162.344 63.2017 162.672 61.7913 163.328 60.5046C163.996 59.2051 164.862 58.1414 165.927 57.3124C167.993 55.7165 170.561 54.9182 173.63 54.9182C175.226 54.9182 176.432 54.9553 177.249 55.0296C177.249 55.0296 177.849 55.0915 179.05 55.2151V74.3682H175.709L175.56 72.1595C174.818 73.1493 173.685 73.8859 172.164 74.3682C171.581 74.5536 170.982 74.6466 170.363 74.6466C169.756 74.6466 169.156 74.5849 168.562 74.4611C167.969 74.3374 167.374 74.1329 166.78 73.8484C166.199 73.5638 165.642 73.1868 165.11 72.7163C164.578 72.234 164.102 71.6464 163.681 70.9535ZM175.337 57.9431C174.546 57.8445 173.753 57.7947 172.961 57.7947C172.182 57.7947 171.347 57.937 170.455 58.2215C169.565 58.4937 168.803 58.9272 168.173 59.521C166.861 60.7584 166.205 62.6449 166.205 65.1813C166.205 67.5815 166.768 69.3571 167.894 70.5077C168.748 71.3613 169.775 71.7887 170.975 71.7887C172.522 71.7887 173.797 71.2257 174.799 70.0993C175.046 69.8148 175.226 69.5616 175.337 69.3387V57.9431ZM182.409 55.2151H186.363L191.281 70.4337L196.256 55.2151H200.117L205.147 70.3777L209.824 55.2151H213.499L207.059 74.3682H203.235L198.075 59.8549L193.193 74.3682H189.37L182.409 55.2151ZM221.017 49.6474C221.017 50.3527 220.781 50.8971 220.311 51.2806C219.854 51.6518 219.278 51.8374 218.585 51.8374C217.892 51.8374 217.317 51.6518 216.859 51.2806C216.414 50.8971 216.191 50.3527 216.191 49.6474C216.191 48.9298 216.414 48.3854 216.859 48.0142C217.317 47.6431 217.892 47.4574 218.585 47.4574C219.278 47.4574 219.854 47.6431 220.311 48.0142C220.781 48.3854 221.017 48.9298 221.017 49.6474ZM216.673 55.2151H220.386V74.3682H216.673V55.2151ZM253.592 72.5679C252.714 73.1868 251.588 73.6753 250.214 74.0343C248.84 74.3805 247.157 74.5536 245.165 74.5536C243.185 74.5536 241.187 74.436 239.17 74.2013V70.6007C240.977 71.009 242.796 71.2129 244.627 71.2129C246.458 71.2129 247.832 71.1143 248.748 70.916C249.663 70.706 250.399 70.4337 250.956 70.0993C251.984 69.4809 252.497 68.6766 252.497 67.6868C252.497 66.9199 252.299 66.3257 251.903 65.905C251.272 65.2496 250.362 64.6492 249.175 64.1052L244.423 61.9336C242.789 61.1667 241.633 60.4548 240.952 59.7994C239.491 58.389 238.761 56.7556 238.761 54.8997C238.761 52.9942 239.591 51.4538 241.249 50.2784C243.068 48.9917 245.654 48.3483 249.007 48.3483C251.173 48.3483 253.153 48.4349 254.947 48.6081V52.1529C253.425 51.8064 251.724 51.6332 249.842 51.6332C247.974 51.6332 246.613 51.7322 245.759 51.9302C244.918 52.1158 244.255 52.3571 243.773 52.654C242.895 53.1984 242.455 53.916 242.455 54.8069C242.455 55.6728 242.733 56.3904 243.29 56.9595C243.785 57.4423 244.689 57.9991 246.001 58.6298L250.882 60.9499C252.503 61.7168 253.635 62.441 254.279 63.1216C254.935 63.8017 255.417 64.4884 255.726 65.1813C256.036 65.8618 256.191 66.6847 256.191 67.6498C256.191 68.6026 255.98 69.5056 255.559 70.3593C255.139 71.2006 254.483 71.9371 253.592 72.5679ZM267.977 71.4358C268.385 71.5843 269.004 71.6588 269.833 71.6588C270.662 71.6588 271.355 71.5596 271.912 71.3614V74.3312C271.652 74.3928 271.275 74.4298 270.78 74.4427L269.611 74.4796C269.351 74.4796 269.153 74.4796 269.017 74.4796C266.628 74.4796 264.865 73.6999 263.727 72.1411C262.811 70.879 262.353 69.2087 262.353 67.13V58.0546H259.606V56.3103L262.353 55.2151L263.244 50.464H266.065V55.2151H272.005V58.0546H266.065V67.1115C266.065 69.5364 266.703 70.9782 267.977 71.4358ZM275.698 64.7544C275.698 61.7481 276.658 59.3104 278.576 57.4423C280.37 55.6975 282.591 54.8254 285.239 54.8254C287.838 54.8254 290.01 55.6975 291.754 57.4423C293.611 59.2981 294.538 61.7358 294.538 64.7544C294.538 67.7613 293.604 70.1862 291.736 72.0296C289.966 73.7867 287.795 74.6651 285.22 74.6651C282.61 74.6651 280.395 73.7867 278.576 72.0296C276.658 70.1862 275.698 67.7613 275.698 64.7544ZM279.559 64.7544C279.559 67.922 280.574 70.0747 282.604 71.2129C283.321 71.6089 284.181 71.8072 285.183 71.8072C286.186 71.8072 287.033 71.6089 287.726 71.2129C288.419 70.8046 288.988 70.273 289.434 69.617C290.263 68.355 290.678 66.734 290.678 64.7544C290.678 61.612 289.681 59.4589 287.689 58.296C286.996 57.8876 286.167 57.6837 285.202 57.6837C284.237 57.6837 283.395 57.8876 282.678 58.296C281.972 58.692 281.391 59.218 280.933 59.8734C280.017 61.16 279.559 62.7872 279.559 64.7544ZM311.281 58.6114C310.6 58.4136 309.783 58.3145 308.83 58.3145C307.89 58.3145 307.117 58.4136 306.511 58.6114C305.904 58.7973 305.372 59.0259 304.914 59.2981C304.073 59.7932 303.46 60.35 303.077 60.9684V74.3682H299.365V55.2151H302.928L303.077 57.8692C304.005 56.7063 305.36 55.8336 307.141 55.2523C307.785 55.0296 308.521 54.9182 309.35 54.9182C310.179 54.9182 310.823 54.9801 311.281 55.1038V58.6114ZM323.902 74.6651C316.899 74.6651 313.397 71.2442 313.397 64.4021C313.397 61.4574 314.368 59.1003 316.311 57.3309C318.055 55.7227 320.048 54.9182 322.288 54.9182C324.725 54.9182 326.631 55.735 328.005 57.3678C329.279 58.8897 329.916 60.9253 329.916 63.474V64.9214H317.258C317.258 68.4228 318.687 70.5637 321.545 71.3429C322.226 71.5288 323.272 71.6213 324.682 71.6213C326.105 71.6213 327.497 71.4297 328.859 71.046V74.1828C327.497 74.5043 325.845 74.6651 323.902 74.6651ZM326.204 62.1935C326.204 61.0054 325.876 60.0033 325.221 59.1866C324.453 58.2467 323.395 57.7762 322.046 57.7762C320.623 57.7762 319.467 58.2277 318.575 59.1312C317.759 59.9725 317.35 60.9931 317.35 62.1935H326.204Z" fill="black"/>
</g>
<defs>
<clipPath id="clip0_6_35">
<rect width="375" height="113" fill="white"/>
</clipPath>
</defs>
</svg>
